<?xml version="1.0" encoding="UTF-8"?>
<svg xmlns="http://www.w3.org/2000/svg" xmlns:xlink="http://www.w3.org/1999/xlink" version="1.1" viewBox="0 0 750 500">
  <defs>
    <style>
      .cls-1 {
        fill: none;
      }

      .cls-2 {
        fill: #616033;
      }

      .cls-3 {
        fill: #fff;
      }

      .cls-3, .cls-4 {
        opacity: .3;
      }

      .cls-4 {
        fill: #f2f2f2;
      }

      .cls-5 {
        clip-path: url(#clippath-2);
      }

      .cls-6 {
        fill: url(#Degradado_sin_nombre_2);
      }
    </style>
    <radialGradient id="Degradado_sin_nombre_2" data-name="Degradado sin nombre 2" cx="384.6" cy="362.6" fx="384.6" fy="362.6" r="411" gradientUnits="userSpaceOnUse">
      <stop offset="0" stop-color="#f3f3f3"/>
      <stop offset=".3" stop-color="#eff0f2"/>
      <stop offset=".6" stop-color="#e4e8f1"/>
      <stop offset=".8" stop-color="#d2dcee"/>
      <stop offset="1" stop-color="#beceec"/>
    </radialGradient>
    <clipPath id="clippath-2">
      <rect class="cls-1" width="750" height="500"/>
    </clipPath>
  </defs>
  <!-- Generator: Adobe Illustrator 28.7.1, SVG Export Plug-In . SVG Version: 1.2.0 Build 142)  -->
  <g>
    <g id="BACKGROUND">
      <g>
        <rect class="cls-6" width="750" height="500"/>
        <g>
          <g>
            <path class="cls-3" d="M606.4,184.1c-7.7-1.9-15.6-2.9-21.3-3.4-86.1-8.1-141.2-6-212.4-6.7-50.6,1-101,4.1-150.5,9.8,277.9-14.1,379,.5,384.3.3Z"/>
            <path class="cls-3" d="M750,186c-30.3-3.2-60.9-6.1-86.3-8.3-17.9,0-35.7.8-53.4,2.5,66.5,3.8,113.4,8.3,139.7,10.5v-4.7Z"/>
            <path class="cls-3" d="M133.9,173.8c-25.1,1.9-79.9,6.4-133.9,12.2v4.7c106.6-11.1,296-22.9,332.7-25.1-66.7.9-133.2,3.4-198.7,8.3Z"/>
          </g>
          <path class="cls-4" d="M358.7,129.7c-23.3-5.8-50.5-7.6-60.4-7.4-.8-4.4-6-7.4-10-8.2-3.8-.8-7.8-.4-11.8,0-5.9-5.2-14-8.6-21.1-7.5-1.6.2-12.3,3.5-12.1,6.9-.6-2.2-6.5-14.7-21.6-13.2-16.4,1.2-18.4,14.3-18.3,14.4,0,0-7.4-9.5-20.8-7.3-13.8,2.2-11.9,13.4-11.6,13.4.2,0-38.6-1.5-37.2,6.7-6.3.7-13.2,1.3-18.2,3.8-1,0,131.5-5.5,243.2.3,1.3,0,1.2-1.7,0-2Z"/>
          <path class="cls-4" d="M437.4,135.5c23.3-5.8,50.5-7.6,60.4-7.4.8-4.4,6-7.4,10-8.2,3.8-.8,7.8-.4,11.8,0,5.9-5.2,14-8.6,21.1-7.5,1.6.2,12.3,3.5,12.1,6.9.6-2.2,6.5-14.7,21.6-13.2,16.4,1.2,18.4,14.3,18.3,14.4,0,0,7.4-9.5,20.8-7.3,13.8,2.2,11.9,13.4,11.6,13.4-.2,0,38.6-1.5,37.2,6.7,6.3.7,13.2,1.3,18.2,3.8,1,0-131.5-5.5-243.2.3-1.3,0-1.2-1.7,0-2Z"/>
          <path class="cls-4" d="M749.1,347.4c-23.3-5.8-50.5-7.6-60.4-7.4-.8-4.4-6-7.4-10-8.2-3.8-.8-7.8-.4-11.8,0-5.9-5.2-14-8.6-21.1-7.5-1.6.2-12.3,3.5-12.1,6.9-.6-2.2-6.5-14.7-21.6-13.2-16.4,1.2-18.4,14.3-18.3,14.4,0,0-7.4-9.5-20.8-7.3-13.8,2.2-11.9,13.4-11.6,13.4.2,0-38.6-1.5-37.2,6.7-6.3.7-13.2,1.3-18.2,3.8-1,0,131.5-5.5,243.2.3,1.3,0,1.2-1.7,0-2Z"/>
          <path class="cls-4" d="M230,75.7c-23.3-5.8-50.5-7.6-60.4-7.4-.8-4.4-6-7.4-10-8.2-3.8-.8-7.8-.4-11.8,0-5.9-5.2-14-8.6-21.1-7.5-1.6.2-12.3,3.5-12.1,6.9-.6-2.2-6.5-14.7-21.6-13.2-16.4,1.2-18.4,14.3-18.3,14.4,0,0-7.4-9.5-20.8-7.3-13.8,2.2-11.9,13.4-11.6,13.4.2,0-38.6-1.5-37.2,6.7-6.3.7-13.2,1.3-18.2,3.8-1,0,131.5-5.5,243.2.3,1.3,0,1.2-1.7,0-2Z"/>
          <path class="cls-4" d="M599.1,60c23.3-5.8,50.5-7.6,60.4-7.4.8-4.4,6-7.4,10-8.2,3.8-.8,7.8-.4,11.8,0,5.9-5.2,14-8.6,21.1-7.5,1.6.2,12.3,3.5,12.1,6.9.6-2.2,6.5-14.7,21.6-13.2,16.4,1.2,18.4,14.3,18.3,14.4,0,0,7.4-9.5,20.8-7.3,13.8,2.2,11.9,13.4,11.6,13.4-.2,0,38.6-1.5,37.2,6.7,6.3.7,13.2,1.3,18.2,3.8,1,0-131.5-5.5-243.2.3-1.3,0-1.2-1.7,0-2Z"/>
        </g>
        <g class="cls-5">
          <g>
            <path class="cls-2" d="M646.5,406.1c.5.6,1.3-.2.9-.7"/>
            <path class="cls-2" d="M608.5,378.2c-1.1-.3-1.6,1.3-.6,1.6"/>
          </g>
        </g>
      </g>
    </g>
  </g>
</svg>