<?xml version="1.0" encoding="UTF-8"?>
<svg xmlns="http://www.w3.org/2000/svg" xmlns:xlink="http://www.w3.org/1999/xlink" version="1.1" viewBox="0 0 750 500">
  <defs>
    <style>
      .cls-1 {
        fill: none;
      }

      .cls-2 {
        filter: url(#drop-shadow-1);
      }

      .cls-3 {
        filter: url(#drop-shadow-3);
      }

      .cls-4 {
        filter: url(#drop-shadow-2);
      }

      .cls-5 {
        filter: url(#drop-shadow-9);
      }

      .cls-6 {
        filter: url(#drop-shadow-6);
      }

      .cls-7 {
        filter: url(#drop-shadow-7);
      }

      .cls-8 {
        filter: url(#drop-shadow-8);
      }

      .cls-9 {
        filter: url(#drop-shadow-5);
      }

      .cls-10 {
        filter: url(#drop-shadow-4);
      }

      .cls-11 {
        fill: url(#linear-gradient-8);
      }

      .cls-12 {
        fill: url(#linear-gradient-5);
      }

      .cls-13 {
        fill: url(#linear-gradient-6);
      }

      .cls-14 {
        fill: url(#linear-gradient-3);
      }

      .cls-15 {
        fill: url(#linear-gradient);
      }

      .cls-16 {
        isolation: isolate;
      }

      .cls-17 {
        fill: #a6894f;
      }

      .cls-18 {
        filter: url(#drop-shadow-22);
      }

      .cls-19 {
        filter: url(#drop-shadow-20);
      }

      .cls-20 {
        filter: url(#drop-shadow-21);
      }

      .cls-21 {
        filter: url(#drop-shadow-27);
      }

      .cls-22 {
        filter: url(#drop-shadow-26);
      }

      .cls-23 {
        filter: url(#drop-shadow-25);
      }

      .cls-24 {
        filter: url(#drop-shadow-24);
      }

      .cls-25 {
        filter: url(#drop-shadow-23);
      }

      .cls-26 {
        filter: url(#drop-shadow-29);
      }

      .cls-27 {
        filter: url(#drop-shadow-28);
      }

      .cls-28 {
        filter: url(#drop-shadow-13);
      }

      .cls-29 {
        filter: url(#drop-shadow-16);
      }

      .cls-30 {
        filter: url(#drop-shadow-19);
      }

      .cls-31 {
        filter: url(#drop-shadow-14);
      }

      .cls-32 {
        filter: url(#drop-shadow-18);
      }

      .cls-33 {
        filter: url(#drop-shadow-17);
      }

      .cls-34 {
        filter: url(#drop-shadow-12);
      }

      .cls-35 {
        filter: url(#drop-shadow-11);
      }

      .cls-36 {
        filter: url(#drop-shadow-10);
      }

      .cls-37 {
        filter: url(#drop-shadow-30);
      }

      .cls-38 {
        filter: url(#drop-shadow-15);
      }

      .cls-39 {
        clip-path: url(#clippath-1);
      }

      .cls-40 {
        fill: url(#linear-gradient-2);
      }

      .cls-40, .cls-41, .cls-42, .cls-43, .cls-44, .cls-45, .cls-46, .cls-47, .cls-48, .cls-49, .cls-50, .cls-51, .cls-52, .cls-53, .cls-54, .cls-55, .cls-56, .cls-57, .cls-58, .cls-59, .cls-60, .cls-61, .cls-62, .cls-63, .cls-64, .cls-65, .cls-66, .cls-67, .cls-68, .cls-69 {
        mix-blend-mode: overlay;
      }

      .cls-41 {
        fill: url(#linear-gradient-4);
      }

      .cls-42 {
        fill: url(#linear-gradient-9);
      }

      .cls-43 {
        fill: url(#linear-gradient-7);
      }

      .cls-44 {
        fill: url(#linear-gradient-11);
      }

      .cls-45 {
        fill: url(#linear-gradient-13);
      }

      .cls-46 {
        fill: url(#linear-gradient-54);
      }

      .cls-47 {
        fill: url(#linear-gradient-51);
      }

      .cls-48 {
        fill: url(#linear-gradient-59);
      }

      .cls-49 {
        fill: url(#linear-gradient-57);
      }

      .cls-50 {
        fill: url(#linear-gradient-63);
      }

      .cls-51 {
        fill: url(#linear-gradient-61);
      }

      .cls-52 {
        fill: url(#linear-gradient-23);
      }

      .cls-53 {
        fill: url(#linear-gradient-19);
      }

      .cls-54 {
        fill: url(#linear-gradient-21);
      }

      .cls-55 {
        fill: url(#linear-gradient-31);
      }

      .cls-56 {
        fill: url(#linear-gradient-33);
      }

      .cls-57 {
        fill: url(#linear-gradient-15);
      }

      .cls-58 {
        fill: url(#linear-gradient-17);
      }

      .cls-59 {
        fill: url(#linear-gradient-25);
      }

      .cls-60 {
        fill: url(#linear-gradient-27);
      }

      .cls-61 {
        fill: url(#linear-gradient-35);
      }

      .cls-62 {
        fill: url(#linear-gradient-39);
      }

      .cls-63 {
        fill: url(#linear-gradient-37);
      }

      .cls-64 {
        fill: url(#linear-gradient-29);
      }

      .cls-65 {
        fill: url(#linear-gradient-41);
      }

      .cls-66 {
        fill: url(#linear-gradient-43);
      }

      .cls-67 {
        fill: url(#linear-gradient-45);
      }

      .cls-68 {
        fill: url(#linear-gradient-47);
      }

      .cls-69 {
        fill: url(#linear-gradient-49);
      }

      .cls-70 {
        fill: url(#linear-gradient-40);
      }

      .cls-71 {
        fill: url(#linear-gradient-42);
      }

      .cls-72 {
        fill: url(#linear-gradient-48);
      }

      .cls-73 {
        fill: url(#linear-gradient-44);
      }

      .cls-74 {
        fill: url(#linear-gradient-46);
      }

      .cls-75 {
        fill: url(#linear-gradient-10);
      }

      .cls-76 {
        fill: url(#linear-gradient-12);
      }

      .cls-77 {
        fill: url(#linear-gradient-14);
      }

      .cls-78 {
        fill: url(#linear-gradient-20);
      }

      .cls-79 {
        fill: url(#linear-gradient-22);
      }

      .cls-80 {
        fill: url(#linear-gradient-28);
      }

      .cls-81 {
        fill: url(#linear-gradient-32);
      }

      .cls-82 {
        fill: url(#linear-gradient-30);
      }

      .cls-83 {
        fill: url(#linear-gradient-16);
      }

      .cls-84 {
        fill: url(#linear-gradient-18);
      }

      .cls-85 {
        fill: url(#linear-gradient-34);
      }

      .cls-86 {
        fill: url(#linear-gradient-36);
      }

      .cls-87 {
        fill: url(#linear-gradient-38);
      }

      .cls-88 {
        fill: url(#linear-gradient-24);
      }

      .cls-89 {
        fill: url(#linear-gradient-26);
      }

      .cls-90 {
        fill: url(#linear-gradient-58);
      }

      .cls-91 {
        fill: url(#linear-gradient-53);
      }

      .cls-92 {
        fill: url(#linear-gradient-55);
      }

      .cls-93 {
        fill: url(#linear-gradient-56);
      }

      .cls-94 {
        fill: url(#linear-gradient-50);
      }

      .cls-95 {
        fill: url(#linear-gradient-52);
      }

      .cls-96 {
        fill: url(#linear-gradient-60);
      }

      .cls-97 {
        fill: url(#linear-gradient-62);
      }

      .cls-98 {
        fill: #282832;
      }

      .cls-99 {
        fill: #2c2d42;
      }

      .cls-100 {
        clip-path: url(#clippath);
      }
    </style>
    <clipPath id="clippath">
      <polygon class="cls-1" points="259 210.7 0 405.2 0 0 343.4 0 259 210.7"/>
    </clipPath>
    <filter id="drop-shadow-1" x="135" y="64" width="97" height="106" filterUnits="userSpaceOnUse">
      <feOffset dx="2" dy="3"/>
      <feGaussianBlur result="blur" stdDeviation="5"/>
      <feFlood flood-color="#000" flood-opacity=".4"/>
      <feComposite in2="blur" operator="in"/>
      <feComposite in="SourceGraphic"/>
    </filter>
    <linearGradient id="linear-gradient" x1="96.8" y1="471.7" x2="143.2" y2="425.3" gradientTransform="translate(61.1 -334.6)" gradientUnits="userSpaceOnUse">
      <stop offset="0" stop-color="#2f355d"/>
      <stop offset="1" stop-color="#393f62"/>
    </linearGradient>
    <linearGradient id="linear-gradient-2" x1="137.9" y1="404.9" x2="118.3" y2="453" gradientTransform="translate(61.1 -334.6)" gradientUnits="userSpaceOnUse">
      <stop offset="0" stop-color="#fff"/>
      <stop offset=".3" stop-color="#fff" stop-opacity=".6"/>
      <stop offset=".5" stop-color="#fff" stop-opacity=".3"/>
      <stop offset=".6" stop-color="#fff" stop-opacity="0"/>
      <stop offset=".7" stop-color="#fff" stop-opacity="0"/>
    </linearGradient>
    <filter id="drop-shadow-2" x="135" y="-49" width="97" height="106" filterUnits="userSpaceOnUse">
      <feOffset dx="2" dy="3"/>
      <feGaussianBlur result="blur-2" stdDeviation="5"/>
      <feFlood flood-color="#000" flood-opacity=".4"/>
      <feComposite in2="blur-2" operator="in"/>
      <feComposite in="SourceGraphic"/>
    </filter>
    <linearGradient id="linear-gradient-3" x1="96.8" y1="584.4" x2="143.2" y2="538" gradientTransform="translate(61.1 -559.9)" gradientUnits="userSpaceOnUse">
      <stop offset="0" stop-color="#2a2a34"/>
      <stop offset="1" stop-color="#2d2d37"/>
    </linearGradient>
    <linearGradient id="linear-gradient-4" x1="137.9" y1="517.6" x2="118.3" y2="565.6" gradientTransform="translate(61.1 -559.9)" xlink:href="#linear-gradient-2"/>
    <filter id="drop-shadow-3" x="63" y="123" width="64" height="88" filterUnits="userSpaceOnUse">
      <feOffset dx="2" dy="3"/>
      <feGaussianBlur result="blur-3" stdDeviation="5"/>
      <feFlood flood-color="#000" flood-opacity=".4"/>
      <feComposite in2="blur-3" operator="in"/>
      <feComposite in="SourceGraphic"/>
    </filter>
    <linearGradient id="linear-gradient-5" x1="191.7" y1="397.9" x2="224.5" y2="397.9" gradientTransform="translate(301.4 562.2) rotate(-180)" xlink:href="#linear-gradient-3"/>
    <linearGradient id="linear-gradient-6" x1="191.7" y1="397.9" x2="224.5" y2="397.9" gradientTransform="translate(301.4 562.2) rotate(-180)" xlink:href="#linear-gradient"/>
    <linearGradient id="linear-gradient-7" x1="220.2" y1="376.9" x2="203.8" y2="405.3" gradientTransform="translate(301.4 562.2) rotate(-180)" xlink:href="#linear-gradient-2"/>
    <filter id="drop-shadow-4" x="-109" y="6" width="97" height="106" filterUnits="userSpaceOnUse">
      <feOffset dx="2" dy="3"/>
      <feGaussianBlur result="blur-4" stdDeviation="5"/>
      <feFlood flood-color="#000" flood-opacity=".4"/>
      <feComposite in2="blur-4" operator="in"/>
      <feComposite in="SourceGraphic"/>
    </filter>
    <linearGradient id="linear-gradient-8" x1="340.2" y1="529.7" x2="386.7" y2="483.3" gradientTransform="translate(-425.8 -450.5)" xlink:href="#linear-gradient-3"/>
    <linearGradient id="linear-gradient-9" x1="381.4" y1="462.9" x2="361.7" y2="510.9" gradientTransform="translate(-425.8 -450.5)" xlink:href="#linear-gradient-2"/>
    <filter id="drop-shadow-5" x="-39" y="6" width="97" height="106" filterUnits="userSpaceOnUse">
      <feOffset dx="2" dy="3"/>
      <feGaussianBlur result="blur-5" stdDeviation="5"/>
      <feFlood flood-color="#000" flood-opacity=".4"/>
      <feComposite in2="blur-5" operator="in"/>
      <feComposite in="SourceGraphic"/>
    </filter>
    <linearGradient id="linear-gradient-10" x1="270.6" y1="529.7" x2="317" y2="483.3" gradientTransform="translate(-286.5 -450.5)" xlink:href="#linear-gradient-3"/>
    <linearGradient id="linear-gradient-11" x1="311.7" y1="462.9" x2="292.1" y2="510.9" gradientTransform="translate(-286.5 -450.5)" xlink:href="#linear-gradient-2"/>
    <filter id="drop-shadow-6" x="-74" y="66" width="97" height="106" filterUnits="userSpaceOnUse">
      <feOffset dx="2" dy="3"/>
      <feGaussianBlur result="blur-6" stdDeviation="5"/>
      <feFlood flood-color="#000" flood-opacity=".4"/>
      <feComposite in2="blur-6" operator="in"/>
      <feComposite in="SourceGraphic"/>
    </filter>
    <linearGradient id="linear-gradient-12" x1="305.4" y1="469.7" x2="351.8" y2="423.3" gradientTransform="translate(-356.1 -330.6)" gradientUnits="userSpaceOnUse">
      <stop offset="0" stop-color="#78594a"/>
      <stop offset="1" stop-color="#7e6052"/>
    </linearGradient>
    <linearGradient id="linear-gradient-13" x1="346.5" y1="402.9" x2="326.9" y2="451" gradientTransform="translate(-356.1 -330.6)" xlink:href="#linear-gradient-2"/>
    <filter id="drop-shadow-7" x="-109" y="126" width="97" height="106" filterUnits="userSpaceOnUse">
      <feOffset dx="2" dy="3"/>
      <feGaussianBlur result="blur-7" stdDeviation="5"/>
      <feFlood flood-color="#000" flood-opacity=".4"/>
      <feComposite in2="blur-7" operator="in"/>
      <feComposite in="SourceGraphic"/>
    </filter>
    <linearGradient id="linear-gradient-14" x1="340.3" y1="409.8" x2="386.7" y2="363.4" gradientTransform="translate(-425.8 -210.6)" gradientUnits="userSpaceOnUse">
      <stop offset="0" stop-color="#423e55"/>
      <stop offset="1" stop-color="#4c495f"/>
    </linearGradient>
    <linearGradient id="linear-gradient-15" x1="381.4" y1="342.9" x2="361.7" y2="391" gradientTransform="translate(-425.8 -210.6)" xlink:href="#linear-gradient-2"/>
    <filter id="drop-shadow-8" x="-39" y="126" width="97" height="106" filterUnits="userSpaceOnUse">
      <feOffset dx="2" dy="3"/>
      <feGaussianBlur result="blur-8" stdDeviation="5"/>
      <feFlood flood-color="#000" flood-opacity=".4"/>
      <feComposite in2="blur-8" operator="in"/>
      <feComposite in="SourceGraphic"/>
    </filter>
    <linearGradient id="linear-gradient-16" x1="270.6" y1="409.8" x2="317" y2="363.4" gradientTransform="translate(-286.5 -210.6)" xlink:href="#linear-gradient"/>
    <linearGradient id="linear-gradient-17" x1="311.7" y1="342.9" x2="292.1" y2="391" gradientTransform="translate(-286.5 -210.6)" xlink:href="#linear-gradient-2"/>
    <filter id="drop-shadow-9" x="-73" y="186" width="96" height="107" filterUnits="userSpaceOnUse">
      <feOffset dx="2" dy="3"/>
      <feGaussianBlur result="blur-9" stdDeviation="5"/>
      <feFlood flood-color="#000" flood-opacity=".4"/>
      <feComposite in2="blur-9" operator="in"/>
      <feComposite in="SourceGraphic"/>
    </filter>
    <linearGradient id="linear-gradient-18" x1="305" y1="349.1" x2="351.4" y2="302.6" gradientTransform="translate(-355.3 -89.2)" xlink:href="#linear-gradient-3"/>
    <linearGradient id="linear-gradient-19" x1="346.1" y1="282.2" x2="326.5" y2="330.3" gradientTransform="translate(-355.3 -89.2)" xlink:href="#linear-gradient-2"/>
    <filter id="drop-shadow-10" x="-40" y="248" width="97" height="106" filterUnits="userSpaceOnUse">
      <feOffset dx="2" dy="3"/>
      <feGaussianBlur result="blur-10" stdDeviation="5"/>
      <feFlood flood-color="#000" flood-opacity=".4"/>
      <feComposite in2="blur-10" operator="in"/>
      <feComposite in="SourceGraphic"/>
    </filter>
    <linearGradient id="linear-gradient-20" x1="407.3" y1="288.5" x2="453.7" y2="242.1" gradientTransform="translate(-424.2 32.9)" xlink:href="#linear-gradient-3"/>
    <linearGradient id="linear-gradient-21" x1="448.4" y1="221.7" x2="428.7" y2="269.7" gradientTransform="translate(-424.2 32.9)" xlink:href="#linear-gradient-2"/>
    <filter id="drop-shadow-11" x="205" y="-49" width="96" height="106" filterUnits="userSpaceOnUse">
      <feOffset dx="2" dy="3"/>
      <feGaussianBlur result="blur-11" stdDeviation="5"/>
      <feFlood flood-color="#000" flood-opacity=".4"/>
      <feComposite in2="blur-11" operator="in"/>
      <feComposite in="SourceGraphic"/>
    </filter>
    <linearGradient id="linear-gradient-22" x1="27.2" y1="584.4" x2="73.6" y2="538" gradientTransform="translate(200.4 -559.9)" gradientUnits="userSpaceOnUse">
      <stop offset="0" stop-color="#b0917d"/>
      <stop offset="1" stop-color="#b69a88"/>
    </linearGradient>
    <linearGradient id="linear-gradient-23" x1="68.3" y1="517.6" x2="48.6" y2="565.6" gradientTransform="translate(200.4 -559.9)" xlink:href="#linear-gradient-2"/>
    <clipPath id="clippath-1">
      <polygon class="cls-1" points="750 500 205 500 680.5 0 750 0 750 500"/>
    </clipPath>
    <filter id="drop-shadow-12" x="475" y="252" width="97" height="107" filterUnits="userSpaceOnUse">
      <feOffset dx="2" dy="3"/>
      <feGaussianBlur result="blur-12" stdDeviation="5"/>
      <feFlood flood-color="#000" flood-opacity=".4"/>
      <feComposite in2="blur-12" operator="in"/>
      <feComposite in="SourceGraphic"/>
    </filter>
    <linearGradient id="linear-gradient-24" x1="498.2" y1="325.7" x2="544.6" y2="279.3" gradientTransform="matrix(1,0,0,1,0,0)" xlink:href="#linear-gradient-12"/>
    <linearGradient id="linear-gradient-25" x1="539.3" y1="258.8" x2="519.6" y2="306.9" gradientTransform="matrix(1,0,0,1,0,0)" xlink:href="#linear-gradient-2"/>
    <filter id="drop-shadow-13" x="682" y="8" width="96" height="107" filterUnits="userSpaceOnUse">
      <feOffset dx="2" dy="3"/>
      <feGaussianBlur result="blur-13" stdDeviation="5"/>
      <feFlood flood-color="#000" flood-opacity=".4"/>
      <feComposite in2="blur-13" operator="in"/>
      <feComposite in="SourceGraphic"/>
    </filter>
    <linearGradient id="linear-gradient-26" x1="709.6" y1="77.2" x2="753.8" y2="33" gradientUnits="userSpaceOnUse">
      <stop offset="0" stop-color="#2c2d42"/>
      <stop offset="1" stop-color="#333448"/>
    </linearGradient>
    <linearGradient id="linear-gradient-27" x1="754.5" y1="13.2" x2="722.1" y2="69.3" gradientTransform="matrix(1,0,0,1,0,0)" xlink:href="#linear-gradient-2"/>
    <filter id="drop-shadow-14" x="718" y="68" width="96" height="107" filterUnits="userSpaceOnUse">
      <feOffset dx="2" dy="3"/>
      <feGaussianBlur result="blur-14" stdDeviation="5"/>
      <feFlood flood-color="#000" flood-opacity=".4"/>
      <feComposite in2="blur-14" operator="in"/>
      <feComposite in="SourceGraphic"/>
    </filter>
    <linearGradient id="linear-gradient-28" x1="740.8" y1="141.9" x2="787.2" y2="95.5" gradientTransform="matrix(1,0,0,1,0,0)" xlink:href="#linear-gradient-3"/>
    <linearGradient id="linear-gradient-29" x1="781.9" y1="75.1" x2="762.3" y2="123.2" gradientTransform="matrix(1,0,0,1,0,0)" xlink:href="#linear-gradient-2"/>
    <filter id="drop-shadow-15" x="266" y="486" width="97" height="107" filterUnits="userSpaceOnUse">
      <feOffset dx="2" dy="3"/>
      <feGaussianBlur result="blur-15" stdDeviation="5"/>
      <feFlood flood-color="#000" flood-opacity=".4"/>
      <feComposite in2="blur-15" operator="in"/>
      <feComposite in="SourceGraphic"/>
    </filter>
    <linearGradient id="linear-gradient-30" x1="289.3" y1="559.2" x2="335.7" y2="512.8" gradientTransform="matrix(1,0,0,1,0,0)" xlink:href="#linear-gradient-3"/>
    <linearGradient id="linear-gradient-31" x1="330.4" y1="493.2" x2="310.7" y2="541.3" gradientTransform="matrix(1,0,0,1,0,0)" xlink:href="#linear-gradient-2"/>
    <filter id="drop-shadow-16" x="127" y="486" width="97" height="107" filterUnits="userSpaceOnUse">
      <feOffset dx="2" dy="3"/>
      <feGaussianBlur result="blur-16" stdDeviation="5"/>
      <feFlood flood-color="#000" flood-opacity=".4"/>
      <feComposite in2="blur-16" operator="in"/>
      <feComposite in="SourceGraphic"/>
    </filter>
    <linearGradient id="linear-gradient-32" x1="150" y1="559.2" x2="196.4" y2="512.8" gradientTransform="matrix(1,0,0,1,0,0)" xlink:href="#linear-gradient-3"/>
    <linearGradient id="linear-gradient-33" x1="191.1" y1="493.2" x2="171.5" y2="541.3" gradientTransform="matrix(1,0,0,1,0,0)" xlink:href="#linear-gradient-2"/>
    <filter id="drop-shadow-17" x="683" y="129" width="97" height="107" filterUnits="userSpaceOnUse">
      <feOffset dx="2" dy="3"/>
      <feGaussianBlur result="blur-17" stdDeviation="5"/>
      <feFlood flood-color="#000" flood-opacity=".4"/>
      <feComposite in2="blur-17" operator="in"/>
      <feComposite in="SourceGraphic"/>
    </filter>
    <linearGradient id="linear-gradient-34" x1="706.4" y1="203" x2="752.8" y2="156.6" gradientTransform="matrix(1,0,0,1,0,0)" xlink:href="#linear-gradient-3"/>
    <linearGradient id="linear-gradient-35" x1="747.5" y1="136.2" x2="727.9" y2="184.2" gradientTransform="matrix(1,0,0,1,0,0)" xlink:href="#linear-gradient-2"/>
    <filter id="drop-shadow-18" x="649" y="190" width="97" height="107" filterUnits="userSpaceOnUse">
      <feOffset dx="2" dy="3"/>
      <feGaussianBlur result="blur-18" stdDeviation="5"/>
      <feFlood flood-color="#000" flood-opacity=".4"/>
      <feComposite in2="blur-18" operator="in"/>
      <feComposite in="SourceGraphic"/>
    </filter>
    <linearGradient id="linear-gradient-36" x1="672" y1="263.7" x2="718.4" y2="217.3" gradientTransform="matrix(1,0,0,1,0,0)" xlink:href="#linear-gradient"/>
    <linearGradient id="linear-gradient-37" x1="713.1" y1="196.9" x2="693.4" y2="245" gradientTransform="matrix(1,0,0,1,0,0)" xlink:href="#linear-gradient-2"/>
    <filter id="drop-shadow-19" x="336" y="486" width="97" height="106" filterUnits="userSpaceOnUse">
      <feOffset dx="2" dy="3"/>
      <feGaussianBlur result="blur-19" stdDeviation="5"/>
      <feFlood flood-color="#000" flood-opacity=".4"/>
      <feComposite in2="blur-19" operator="in"/>
      <feComposite in="SourceGraphic"/>
    </filter>
    <linearGradient id="linear-gradient-38" x1="358.9" y1="559.2" x2="405.3" y2="512.8" gradientTransform="matrix(1,0,0,1,0,0)" xlink:href="#linear-gradient"/>
    <linearGradient id="linear-gradient-39" x1="400" y1="492.3" x2="380.4" y2="540.4" gradientTransform="matrix(1,0,0,1,0,0)" xlink:href="#linear-gradient-2"/>
    <filter id="drop-shadow-20" x="406" y="486" width="96" height="106" filterUnits="userSpaceOnUse">
      <feOffset dx="2" dy="3"/>
      <feGaussianBlur result="blur-20" stdDeviation="5"/>
      <feFlood flood-color="#000" flood-opacity=".4"/>
      <feComposite in2="blur-20" operator="in"/>
      <feComposite in="SourceGraphic"/>
    </filter>
    <linearGradient id="linear-gradient-40" x1="428.5" y1="559.2" x2="475" y2="512.8" gradientTransform="matrix(1,0,0,1,0,0)" xlink:href="#linear-gradient-22"/>
    <linearGradient id="linear-gradient-41" x1="469.7" y1="492.3" x2="450" y2="540.4" gradientTransform="matrix(1,0,0,1,0,0)" xlink:href="#linear-gradient-2"/>
    <filter id="drop-shadow-21" x="719" y="190" width="96" height="107" filterUnits="userSpaceOnUse">
      <feOffset dx="2" dy="3"/>
      <feGaussianBlur result="blur-21" stdDeviation="5"/>
      <feFlood flood-color="#000" flood-opacity=".4"/>
      <feComposite in2="blur-21" operator="in"/>
      <feComposite in="SourceGraphic"/>
    </filter>
    <linearGradient id="linear-gradient-42" x1="741.6" y1="263.7" x2="788" y2="217.3" gradientTransform="matrix(1,0,0,1,0,0)" xlink:href="#linear-gradient-14"/>
    <linearGradient id="linear-gradient-43" x1="782.7" y1="196.9" x2="763.1" y2="245" gradientTransform="matrix(1,0,0,1,0,0)" xlink:href="#linear-gradient-2"/>
    <filter id="drop-shadow-22" x="684" y="250" width="96" height="107" filterUnits="userSpaceOnUse">
      <feOffset dx="2" dy="3"/>
      <feGaussianBlur result="blur-22" stdDeviation="5"/>
      <feFlood flood-color="#000" flood-opacity=".4"/>
      <feComposite in2="blur-22" operator="in"/>
      <feComposite in="SourceGraphic"/>
    </filter>
    <linearGradient id="linear-gradient-44" x1="706.8" y1="323.7" x2="753.2" y2="277.3" gradientTransform="matrix(1,0,0,1,0,0)" xlink:href="#linear-gradient-12"/>
    <linearGradient id="linear-gradient-45" x1="747.9" y1="256.8" x2="728.3" y2="304.9" gradientTransform="matrix(1,0,0,1,0,0)" xlink:href="#linear-gradient-2"/>
    <filter id="drop-shadow-23" x="649" y="310" width="97" height="107" filterUnits="userSpaceOnUse">
      <feOffset dx="2" dy="3"/>
      <feGaussianBlur result="blur-23" stdDeviation="5"/>
      <feFlood flood-color="#000" flood-opacity=".4"/>
      <feComposite in2="blur-23" operator="in"/>
      <feComposite in="SourceGraphic"/>
    </filter>
    <linearGradient id="linear-gradient-46" x1="672" y1="383.7" x2="718.4" y2="337.3" gradientTransform="matrix(1,0,0,1,0,0)" xlink:href="#linear-gradient-3"/>
    <linearGradient id="linear-gradient-47" x1="713.1" y1="316.8" x2="693.4" y2="364.9" gradientTransform="matrix(1,0,0,1,0,0)" xlink:href="#linear-gradient-2"/>
    <filter id="drop-shadow-24" x="406" y="365" width="96" height="106" filterUnits="userSpaceOnUse">
      <feOffset dx="2" dy="3"/>
      <feGaussianBlur result="blur-24" stdDeviation="5"/>
      <feFlood flood-color="#000" flood-opacity=".4"/>
      <feComposite in2="blur-24" operator="in"/>
      <feComposite in="SourceGraphic"/>
    </filter>
    <linearGradient id="linear-gradient-48" x1="428.5" y1="438.4" x2="475" y2="391.9" gradientTransform="matrix(1,0,0,1,0,0)" xlink:href="#linear-gradient-22"/>
    <linearGradient id="linear-gradient-49" x1="469.7" y1="371.5" x2="450" y2="419.6" gradientTransform="matrix(1,0,0,1,0,0)" xlink:href="#linear-gradient-2"/>
    <filter id="drop-shadow-25" x="475" y="365" width="97" height="106" filterUnits="userSpaceOnUse">
      <feOffset dx="2" dy="3"/>
      <feGaussianBlur result="blur-25" stdDeviation="5"/>
      <feFlood flood-color="#000" flood-opacity=".4"/>
      <feComposite in2="blur-25" operator="in"/>
      <feComposite in="SourceGraphic"/>
    </filter>
    <linearGradient id="linear-gradient-50" x1="498.2" y1="438.4" x2="544.6" y2="391.9" gradientTransform="matrix(1,0,0,1,0,0)" xlink:href="#linear-gradient-3"/>
    <linearGradient id="linear-gradient-51" x1="539.3" y1="371.5" x2="519.6" y2="419.6" gradientTransform="matrix(1,0,0,1,0,0)" xlink:href="#linear-gradient-2"/>
    <filter id="drop-shadow-26" x="580" y="211" width="63" height="88" filterUnits="userSpaceOnUse">
      <feOffset dx="2" dy="3"/>
      <feGaussianBlur result="blur-26" stdDeviation="5"/>
      <feFlood flood-color="#000" flood-opacity=".4"/>
      <feComposite in2="blur-26" operator="in"/>
      <feComposite in="SourceGraphic"/>
    </filter>
    <linearGradient id="linear-gradient-52" x1="593.1" y1="251.9" x2="625.9" y2="251.9" gradientTransform="matrix(1,0,0,1,0,0)" xlink:href="#linear-gradient-3"/>
    <linearGradient id="linear-gradient-53" x1="593.1" y1="251.9" x2="625.9" y2="251.9" gradientTransform="matrix(1,0,0,1,0,0)" xlink:href="#linear-gradient"/>
    <linearGradient id="linear-gradient-54" x1="621.6" y1="230.9" x2="605.2" y2="259.3" gradientTransform="matrix(1,0,0,1,0,0)" xlink:href="#linear-gradient-2"/>
    <filter id="drop-shadow-27" x="301" y="444" width="64" height="88" filterUnits="userSpaceOnUse">
      <feOffset dx="2" dy="3"/>
      <feGaussianBlur result="blur-27" stdDeviation="5"/>
      <feFlood flood-color="#000" flood-opacity=".4"/>
      <feComposite in2="blur-27" operator="in"/>
      <feComposite in="SourceGraphic"/>
    </filter>
    <linearGradient id="linear-gradient-55" x1="314.6" y1="484.6" x2="347.4" y2="484.6" gradientTransform="matrix(1,0,0,1,0,0)" xlink:href="#linear-gradient-3"/>
    <linearGradient id="linear-gradient-56" x1="314.6" y1="484.6" x2="347.4" y2="484.6" gradientTransform="matrix(1,0,0,1,0,0)" xlink:href="#linear-gradient"/>
    <linearGradient id="linear-gradient-57" x1="343.1" y1="463.6" x2="326.7" y2="492" gradientTransform="matrix(1,0,0,1,0,0)" xlink:href="#linear-gradient-2"/>
    <filter id="drop-shadow-28" x="371" y="425" width="96" height="106" filterUnits="userSpaceOnUse">
      <feOffset dx="2" dy="3"/>
      <feGaussianBlur result="blur-28" stdDeviation="5"/>
      <feFlood flood-color="#000" flood-opacity=".4"/>
      <feComposite in2="blur-28" operator="in"/>
      <feComposite in="SourceGraphic"/>
    </filter>
    <linearGradient id="linear-gradient-58" x1="393.7" y1="498.3" x2="440.1" y2="451.9" gradientTransform="matrix(1,0,0,1,0,0)" xlink:href="#linear-gradient-12"/>
    <linearGradient id="linear-gradient-59" x1="434.8" y1="431.5" x2="415.2" y2="479.6" gradientTransform="matrix(1,0,0,1,0,0)" xlink:href="#linear-gradient-2"/>
    <filter id="drop-shadow-29" x="719" y="310" width="96" height="107" filterUnits="userSpaceOnUse">
      <feOffset dx="2" dy="3"/>
      <feGaussianBlur result="blur-29" stdDeviation="5"/>
      <feFlood flood-color="#000" flood-opacity=".4"/>
      <feComposite in2="blur-29" operator="in"/>
      <feComposite in="SourceGraphic"/>
    </filter>
    <linearGradient id="linear-gradient-60" x1="741.6" y1="383.7" x2="788" y2="337.3" gradientTransform="matrix(1,0,0,1,0,0)" xlink:href="#linear-gradient-3"/>
    <linearGradient id="linear-gradient-61" x1="782.7" y1="316.8" x2="763.1" y2="364.9" gradientTransform="matrix(1,0,0,1,0,0)" xlink:href="#linear-gradient-2"/>
    <filter id="drop-shadow-30" x="684" y="424" width="96" height="106" filterUnits="userSpaceOnUse">
      <feOffset dx="2" dy="3"/>
      <feGaussianBlur result="blur-30" stdDeviation="5"/>
      <feFlood flood-color="#000" flood-opacity=".4"/>
      <feComposite in2="blur-30" operator="in"/>
      <feComposite in="SourceGraphic"/>
    </filter>
    <linearGradient id="linear-gradient-62" x1="706.8" y1="497.2" x2="753.2" y2="450.7" gradientTransform="matrix(1,0,0,1,0,0)" xlink:href="#linear-gradient-3"/>
    <linearGradient id="linear-gradient-63" x1="747.9" y1="430.3" x2="728.3" y2="478.4" gradientTransform="matrix(1,0,0,1,0,0)" xlink:href="#linear-gradient-2"/>
  </defs>
  <!-- Generator: Adobe Illustrator 28.7.1, SVG Export Plug-In . SVG Version: 1.2.0 Build 142)  -->
  <g class="cls-16">
    <g id="BACKGROUND">
      <rect class="cls-98" width="750" height="500"/>
    </g>
    <g id="OBJECTS">
      <g>
        <g class="cls-100">
          <g>
            <path class="cls-17" d="M111.6,151l-32.9-19v-38h0s32.9-19,32.9-19l32.9,19v38h0s-32.9,19-32.9,19ZM78.9,131.8l32.7,18.9,32.7-18.9v-37.7l-32.7-18.9-32.7,18.9v37.7Z"/>
            <path class="cls-17" d="M111.6,149.2l-31.4-18.1v-36.3h0s31.4-18.1,31.4-18.1l31.4,18.1v36.3h0s-31.4,18.1-31.4,18.1ZM80.4,131l31.2,18,31.2-18v-36l-31.2-18-31.2,18v36Z"/>
            <path class="cls-17" d="M111.6,147.5l-29.9-17.3v-34.5h0s29.8-17.3,29.8-17.3l29.9,17.3v34.5h0s-29.8,17.3-29.8,17.3ZM81.9,130.1l29.7,17.1,29.7-17.1v-34.2l-29.7-17.1-29.7,17.1v34.2Z"/>
            <path class="cls-17" d="M111.6,145.7l-28.4-16.4v-32.8h0s28.3-16.4,28.3-16.4l28.4,16.4v32.8h0s-28.3,16.4-28.3,16.4ZM83.5,129.2l28.1,16.2,28.1-16.2v-32.5l-28.1-16.2-28.1,16.2v32.5Z"/>
            <path class="cls-17" d="M111.6,144l-26.9-15.5v-31h0s26.8-15.5,26.8-15.5l26.9,15.5v31h0s-26.8,15.5-26.8,15.5ZM85,128.3l26.6,15.4,26.6-15.4v-30.7l-26.6-15.4-26.6,15.4v30.7Z"/>
            <path class="cls-17" d="M111.6,142.2l-25.4-14.6v-29.3h0s25.3-14.6,25.3-14.6l25.4,14.6v29.3h0s-25.3,14.6-25.3,14.6ZM86.5,127.5l25.1,14.5,25.1-14.5v-29l-25.1-14.5-25.1,14.5v29Z"/>
            <path class="cls-17" d="M111.6,140.5l-23.8-13.8v-27.5h0s23.8-13.8,23.8-13.8l23.8,13.8v27.5h0s-23.8,13.8-23.8,13.8ZM88,126.6l23.6,13.6,23.6-13.6v-27.2l-23.6-13.6-23.6,13.6v27.2Z"/>
            <path class="cls-17" d="M111.6,138.7l-22.3-12.9v-25.8h0s22.3-12.9,22.3-12.9l22.3,12.9v25.8h0s-22.3,12.9-22.3,12.9ZM89.5,125.7l22.1,12.7,22.1-12.7v-25.5l-22.1-12.7-22.1,12.7v25.5Z"/>
            <path class="cls-17" d="M111.6,137l-20.8-12v-24h0s20.7-12,20.7-12l20.8,12v24h0s-20.7,12-20.7,12ZM91.1,124.8l20.5,11.9,20.5-11.9v-23.7l-20.5-11.9-20.5,11.9v23.7Z"/>
            <polygon class="cls-17" points="78.8 132 78.7 131.8 144.3 93.9 144.5 94.1 78.8 132"/>
          </g>
          <g>
            <path class="cls-17" d="M78.9,94.1l-32.9-19v-38h0s32.9-19,32.9-19l32.9,19v38h0s-32.9,19-32.9,19ZM46.2,74.9l32.7,18.9,32.7-18.9v-37.7l-32.7-18.9-32.7,18.9v37.7Z"/>
            <path class="cls-17" d="M78.9,91.8l-30.9-17.9v-35.7h0s30.9-17.9,30.9-17.9l30.9,17.9v35.7h0s-30.9,17.9-30.9,17.9ZM48.2,73.8l30.7,17.7,30.7-17.7v-35.4l-30.7-17.7-30.7,17.7v35.4Z"/>
            <path class="cls-17" d="M78.9,89.5l-28.9-16.7v-33.4h0s28.9-16.7,28.9-16.7l28.9,16.7v33.4h0s-28.9,16.7-28.9,16.7ZM50.2,72.6l28.7,16.6,28.7-16.6v-33.1l-28.7-16.6-28.7,16.6v33.1Z"/>
            <path class="cls-17" d="M78.9,87.1l-26.9-15.6v-31.1h0s26.9-15.6,26.9-15.6l26.9,15.6v31.1h0s-26.9,15.6-26.9,15.6ZM52.2,71.4l26.7,15.4,26.7-15.4v-30.8l-26.7-15.4-26.7,15.4v30.8Z"/>
            <path class="cls-17" d="M78.9,84.8l-24.9-14.4v-28.8h0s24.9-14.4,24.9-14.4l24.9,14.4v28.8h0s-24.9,14.4-24.9,14.4ZM54.2,70.3l24.7,14.3,24.7-14.3v-28.5l-24.7-14.3-24.7,14.3v28.5Z"/>
            <path class="cls-17" d="M78.9,82.5l-22.9-13.2v-26.5h0s22.9-13.2,22.9-13.2l22.9,13.2v26.5h0s-22.9,13.2-22.9,13.2ZM56.2,69.1l22.7,13.1,22.7-13.1v-26.2l-22.7-13.1-22.7,13.1v26.2Z"/>
            <path class="cls-17" d="M78.9,80.2l-20.9-12.1v-24.2h0s20.9-12.1,20.9-12.1l20.9,12.1v24.2h0s-20.9,12.1-20.9,12.1ZM58.2,68l20.7,11.9,20.7-11.9v-23.9l-20.7-11.9-20.7,11.9v23.9Z"/>
            <path class="cls-17" d="M78.9,77.9l-18.9-10.9v-21.9h0s18.9-10.9,18.9-10.9l18.9,10.9v21.9h0s-18.9,10.9-18.9,10.9ZM60.2,66.8l18.7,10.8,18.7-10.8v-21.6l-18.7-10.8-18.7,10.8v21.6Z"/>
            <path class="cls-17" d="M78.9,75.6l-16.9-9.8v-19.6h0s16.9-9.8,16.9-9.8l16.9,9.8v19.6h0s-16.9,9.8-16.9,9.8ZM62.2,65.7l16.7,9.6,16.7-9.6v-19.3l-16.7-9.6-16.7,9.6v19.3Z"/>
            <path class="cls-17" d="M78.9,73.3l-14.9-8.6v-17.3h0s14.9-8.6,14.9-8.6l14.9,8.6v17.3h0s-14.9,8.6-14.9,8.6ZM64.2,64.5l14.7,8.5,14.7-8.5v-17l-14.7-8.5-14.7,8.5v17Z"/>
            <path class="cls-17" d="M78.9,71l-12.9-7.5v-14.9h0s12.9-7.5,12.9-7.5l12.9,7.5v14.9h0s-12.9,7.5-12.9,7.5ZM66.2,63.4l12.7,7.3,12.7-7.3v-14.6l-12.7-7.3-12.7,7.3v14.6Z"/>
            <path class="cls-17" d="M78.9,68.7l-10.9-6.3v-12.6h0s10.9-6.3,10.9-6.3l10.9,6.3v12.6h0s-10.9,6.3-10.9,6.3ZM68.2,62.2l10.7,6.2,10.7-6.2v-12.3l-10.7-6.2-10.7,6.2v12.3Z"/>
            <path class="cls-17" d="M78.9,66.4l-8.9-5.2v-10.3h0s8.9-5.2,8.9-5.2l8.9,5.2v10.3h0s-8.9,5.2-8.9,5.2ZM70.2,61.1l8.7,5,8.7-5v-10l-8.7-5-8.7,5v10Z"/>
            <path class="cls-17" d="M78.9,64.1l-6.9-4v-8h0s6.9-4,6.9-4l6.9,4v8h0s-6.9,4-6.9,4ZM72.2,59.9l6.7,3.9,6.7-3.9v-7.7l-6.7-3.9-6.7,3.9v7.7Z"/>
            <path class="cls-17" d="M78.9,61.7l-4.9-2.9v-5.7l4.9-2.9,4.9,2.9v5.7l-4.9,2.9ZM74.2,58.7l4.7,2.7,4.7-2.7v-5.4l-4.7-2.7-4.7,2.7v5.4Z"/>
            <path class="cls-17" d="M78.9,59.4l-2.9-1.7v-3.4l2.9-1.7,2.9,1.7v3.4l-2.9,1.7ZM76.2,57.6l2.7,1.6,2.7-1.6v-3.1l-2.7-1.6-2.7,1.6v3.1Z"/>
            <path class="cls-17" d="M78.9,57.1l-.9-.5v-1.1l.9-.5.9.5v1.1l-.9.5ZM78.2,56.4l.7.4.7-.4v-.8l-.7-.4-.7.4v.8Z"/>
          </g>
          <g>
            <path class="cls-17" d="M46,18.8l-16.9-9.8V-10.6h0s16.9-9.8,16.9-9.8l16.9,9.8V9h0s-16.9,9.8-16.9,9.8ZM29.3,8.8l16.7,9.6,16.7-9.6V-10.4l-16.7-9.6-16.7,9.6V8.8Z"/>
            <path class="cls-17" d="M46,16.4l-14.9-8.6V-9.4h0s14.9-8.6,14.9-8.6l14.9,8.6V7.8h0s-14.9,8.6-14.9,8.6ZM31.3,7.7l14.7,8.5,14.7-8.5V-9.3l-14.7-8.5-14.7,8.5V7.7Z"/>
            <path class="cls-17" d="M46,14.1l-12.9-7.5v-14.9h0s12.9-7.5,12.9-7.5l12.9,7.5V6.7h0s-12.9,7.5-12.9,7.5ZM33.3,6.5l12.7,7.3,12.7-7.3v-14.6l-12.7-7.3-12.7,7.3V6.5Z"/>
            <path class="cls-17" d="M46,11.8l-10.9-6.3V-7.1h0s10.9-6.3,10.9-6.3l10.9,6.3V5.5h0s-10.9,6.3-10.9,6.3ZM35.3,5.4l10.7,6.2,10.7-6.2V-7l-10.7-6.2-10.7,6.2V5.4Z"/>
            <path class="cls-17" d="M46,9.5l-8.9-5.2V-6h0s8.9-5.2,8.9-5.2l8.9,5.2V4.4h0s-8.9,5.2-8.9,5.2ZM37.3,4.2l8.7,5,8.7-5V-5.8l-8.7-5-8.7,5V4.2Z"/>
            <path class="cls-17" d="M46,7.2l-6.9-4V-4.8h0s6.9-4,6.9-4l6.9,4V3.2h0s-6.9,4-6.9,4ZM39.3,3.1l6.7,3.9,6.7-3.9v-7.7l-6.7-3.9-6.7,3.9V3.1Z"/>
            <path class="cls-17" d="M46,4.9l-4.9-2.9V-3.7l4.9-2.9,4.9,2.9V2l-4.9,2.9ZM41.3,1.9l4.7,2.7,4.7-2.7V-3.5l-4.7-2.7-4.7,2.7V1.9Z"/>
          </g>
          <path class="cls-17" d="M111.7,37.2l-32.9-19V-19.8h0s32.9-19,32.9-19l32.9,19V18.2h0s-32.9,19-32.9,19ZM79,18.1l32.7,18.9,32.7-18.9V-19.7l-32.7-18.9-32.7,18.9V18.1Z"/>
          <path class="cls-17" d="M283.7,39.2l-32.9-19V-17.9h0s32.9-19,32.9-19l32.9,19V20.2h0s-32.9,19-32.9,19ZM251,20l32.7,18.9,32.7-18.9V-17.7l-32.7-18.9-32.7,18.9V20Z"/>
          <path class="cls-17" d="M305.8,26.4l-10.8-6.2V7.7h0s10.7-6.2,10.7-6.2l10.8,6.2v12.4h0s-10.7,6.2-10.7,6.2ZM295.3,20l10.5,6.1,10.5-6.1V7.9l-10.5-6.1-10.5,6.1v12.2Z"/>
          <path class="cls-17" d="M146,68.5l-10.8-6.2v-12.4h0s10.7-6.2,10.7-6.2l10.8,6.2v12.4h0s-10.7,6.2-10.7,6.2ZM135.4,62.1l10.5,6.1,10.5-6.1v-12.2l-10.5-6.1-10.5,6.1v12.2Z"/>
          <g>
            <path class="cls-17" d="M72.7,131.2h-.2c0-.1-28.9-16.8-28.9-16.8v-33.6h.2c0,.1,28.9,16.8,28.9,16.8v33.6ZM43.9,114.3l28.6,16.5v-33l-28.6-16.5v33Z"/>
            <path class="cls-17" d="M70.7,127.8h-.2c0-.1-24.9-14.5-24.9-14.5v-28.9h.2c0,.1,24.9,14.5,24.9,14.5v28.9ZM45.9,113.1l24.6,14.2v-28.4l-24.6-14.2v28.4Z"/>
            <path class="cls-17" d="M68.7,124.3h-.2c0-.1-20.9-12.2-20.9-12.2v-24.3h.2c0,.1,20.9,12.2,20.9,12.2v24.3ZM47.9,112l20.6,11.9v-23.7l-20.6-11.9v23.7Z"/>
            <path class="cls-17" d="M66.7,120.8l-17.1-9.9v-19.7l17.1,9.9v19.7ZM49.9,110.8l16.6,9.6v-19.1l-16.6-9.6v19.1Z"/>
            <path class="cls-17" d="M64.7,117.4l-13.1-7.5v-15.1l13.1,7.5v15.1ZM51.9,109.7l12.6,7.3v-14.5l-12.6-7.3v14.5Z"/>
            <path class="cls-17" d="M62.7,113.9l-9.1-5.2v-10.5l9.1,5.2v10.5ZM53.9,108.5l8.6,4.9v-9.9l-8.6-4.9v9.9Z"/>
            <path class="cls-17" d="M60.7,110.4l-5.1-2.9v-5.9l5.1,2.9v5.9ZM55.9,107.4l4.6,2.6v-5.3l-4.6-2.6v5.3Z"/>
          </g>
          <path class="cls-17" d="M7.4,277h0s-55.2-31.9-55.2-31.9v-63.8h0s55.2-31.9,55.2-31.9h0s55.2,31.9,55.2,31.9v63.8h0s-55.2,31.9-55.2,31.9ZM-47.6,244.9l55,31.8,55-31.8v-63.5l-55-31.8-55,31.8v63.5Z"/>
          <polygon class="cls-17" points="78.8 18.3 13.2 -19.6 13.3 -19.9 78.9 18 78.8 18.3"/>
          <g>
            <g class="cls-2">
              <path class="cls-15" d="M148.4,95.4v37c0,.3.2.5.4.7l32,18.5c.2.1.6.1.8,0l32-18.5c.2-.1.4-.4.4-.7v-37c0-.3-.2-.5-.4-.7l-32-18.5c-.2-.1-.6-.1-.8,0l-32,18.5c-.2.1-.4.4-.4.7Z"/>
              <path class="cls-40" d="M213.7,94.7l-32-18.5c-.2-.1-.6-.1-.8,0l-32,18.5c-.2.1-.4.4-.4.7v37c0,.3.2.6.4.7l32,18.5c.2.1.6.1.8,0l32-18.5c.2-.1.4-.4.4-.7v-37c0-.3-.2-.5-.4-.7ZM213.7,132.3c0,.1,0,.3-.2.3l-32,18.5c0,0-.1,0-.2,0s-.1,0-.2,0l-32-18.5c-.1,0-.2-.2-.2-.3v-37c0-.1,0-.3.2-.3l32-18.5c0,0,.1,0,.2,0s.1,0,.2,0l32,18.5c.1,0,.2.2.2.3v37Z"/>
            </g>
            <g class="cls-4">
              <path class="cls-14" d="M148.4-17.3V19.6c0,.3.2.5.4.7l32,18.5c.2.1.6.1.8,0l32-18.5c.2-.1.4-.4.4-.7V-17.3c0-.3-.2-.5-.4-.7l-32-18.5c-.2-.1-.6-.1-.8,0l-32,18.5c-.2.1-.4.4-.4.7Z"/>
              <path class="cls-41" d="M213.7-18l-32-18.5c-.2-.1-.6-.1-.8,0l-32,18.5c-.2.1-.4.4-.4.7V19.6c0,.3.2.5.4.7l32,18.5c.2.1.6.1.8,0l32-18.5c.2-.1.4-.4.4-.7V-17.3c0-.3-.2-.5-.4-.7ZM213.7,19.6c0,.1,0,.3-.2.3l-32,18.5c0,0-.1,0-.2,0s-.1,0-.2,0l-32-18.5c-.1,0-.2-.2-.2-.3V-17.3c0-.1,0-.3.2-.3l32-18.5c0,0,.1,0,.2,0s.1,0,.2,0l32,18.5c.1,0,.2.2.2.3V19.6Z"/>
            </g>
            <g class="cls-3">
              <g>
                <polygon class="cls-12" points="76.9 135.9 76.9 173.8 109.7 192.7 76.9 135.9"/>
                <polygon class="cls-13" points="76.9 135.9 109.7 154.9 109.7 192.7 76.9 135.9"/>
              </g>
              <path class="cls-43" d="M109.7,192.7v-37.9l-32.8-18.9v37.9l32.8,18.9ZM77.3,136.6l32,18.5v37l-32-18.5v-37Z"/>
            </g>
            <g class="cls-10">
              <path class="cls-11" d="M-95,37.4v37c0,.3.2.5.4.7l32,18.5c.2.1.6.1.8,0l32-18.5c.2-.1.4-.4.4-.7v-37c0-.3-.2-.6-.4-.7l-32-18.5c-.2-.1-.6-.1-.8,0l-32,18.5c-.2.1-.4.4-.4.7Z"/>
              <path class="cls-42" d="M-29.8,36.7l-32-18.5c-.2-.1-.6-.1-.8,0l-32,18.5c-.2.1-.4.4-.4.7v37c0,.3.2.5.4.7l32,18.5c.2.1.6.1.8,0l32-18.5c.2-.1.4-.4.4-.7v-37c0-.3-.2-.5-.4-.7ZM-29.8,74.3c0,.1,0,.3-.2.3l-32,18.5c0,0-.1,0-.2,0s-.1,0-.2,0l-32-18.5c-.1,0-.2-.2-.2-.3v-37c0-.1,0-.3.2-.3l32-18.5c0,0,.1,0,.2,0s.1,0,.2,0l32,18.5c.1,0,.2.2.2.3v37Z"/>
            </g>
            <g class="cls-9">
              <path class="cls-75" d="M-25.4,37.4v37c0,.3.2.5.4.7L7,93.5c.2.1.6.1.8,0l32-18.5c.2-.1.4-.4.4-.7v-37c0-.3-.2-.6-.4-.7L7.8,18.2c-.2-.1-.6-.1-.8,0l-32,18.5c-.2.1-.4.4-.4.7Z"/>
              <path class="cls-44" d="M39.8,36.7L7.8,18.2c-.2-.1-.6-.1-.8,0l-32,18.5c-.2.1-.4.4-.4.7v37c0,.3.2.5.4.7L7,93.5c.2.1.6.1.8,0l32-18.5c.2-.1.4-.4.4-.7v-37c0-.3-.2-.5-.4-.7ZM39.8,74.3c0,.1,0,.3-.2.3L7.6,93.2c0,0-.1,0-.2,0s-.1,0-.2,0l-32-18.5c-.1,0-.2-.2-.2-.3v-37c0-.1,0-.3.2-.3L7.2,18.5c0,0,.1,0,.2,0s.1,0,.2,0l32,18.5c.1,0,.2.2.2.3v37Z"/>
            </g>
            <g class="cls-6">
              <path class="cls-76" d="M-60.2,97.4v37c0,.3.2.5.4.7l32,18.5c.2.1.6.1.8,0l32-18.5c.2-.1.4-.4.4-.7v-37c0-.3-.2-.5-.4-.7l-32-18.5c-.2-.1-.6-.1-.8,0l-32,18.5c-.2.1-.4.4-.4.7Z"/>
              <path class="cls-45" d="M5,96.7l-32-18.5c-.2-.1-.6-.1-.8,0l-32,18.5c-.2.1-.4.4-.4.7v37c0,.3.2.6.4.7l32,18.5c.2.1.6.1.8,0l32-18.5c.2-.1.4-.4.4-.7v-37c0-.3-.2-.5-.4-.7ZM5,134.3c0,.1,0,.3-.2.3l-32,18.5c0,0-.1,0-.2,0s-.1,0-.2,0l-32-18.5c-.1,0-.2-.2-.2-.3v-37c0-.1,0-.3.2-.3l32-18.5c0,0,.1,0,.2,0s.1,0,.2,0L4.8,97c.1,0,.2.2.2.3v37Z"/>
            </g>
            <g class="cls-7">
              <path class="cls-77" d="M-95,157.3v37c0,.3.2.5.4.7l32,18.5c.2.1.6.1.8,0l32-18.5c.2-.1.4-.4.4-.7v-37c0-.3-.2-.5-.4-.7l-32-18.5c-.2-.1-.6-.1-.8,0l-32,18.5c-.2.1-.4.4-.4.7Z"/>
              <path class="cls-57" d="M-29.8,156.6l-32-18.5c-.2-.1-.6-.1-.8,0l-32,18.5c-.2.1-.4.4-.4.7v37c0,.3.2.5.4.7l32,18.5c.2.1.6.1.8,0l32-18.5c.2-.1.4-.4.4-.7v-37c0-.3-.2-.5-.4-.7ZM-29.8,194.3c0,.1,0,.3-.2.3l-32,18.5c0,0-.1,0-.2,0s-.1,0-.2,0l-32-18.5c-.1,0-.2-.2-.2-.3v-37c0-.1,0-.3.2-.3l32-18.5c0,0,.1,0,.2,0s.1,0,.2,0l32,18.5c.1,0,.2.2.2.3v37Z"/>
            </g>
            <g class="cls-8">
              <path class="cls-83" d="M-25.4,157.3v37c0,.3.2.5.4.7l32,18.5c.2.1.6.1.8,0l32-18.5c.2-.1.4-.4.4-.7v-37c0-.3-.2-.5-.4-.7l-32-18.5c-.2-.1-.6-.1-.8,0l-32,18.5c-.2.1-.4.4-.4.7Z"/>
              <path class="cls-58" d="M39.8,156.6l-32-18.5c-.2-.1-.6-.1-.8,0l-32,18.5c-.2.1-.4.4-.4.7v37c0,.3.2.5.4.7l32,18.5c.2.1.6.1.8,0l32-18.5c.2-.1.4-.4.4-.7v-37c0-.3-.2-.5-.4-.7ZM39.8,194.3c0,.1,0,.3-.2.3l-32,18.5c0,0-.1,0-.2,0s-.1,0-.2,0l-32-18.5c-.1,0-.2-.2-.2-.3v-37c0-.1,0-.3.2-.3l32-18.5c0,0,.1,0,.2,0s.1,0,.2,0l32,18.5c.1,0,.2.2.2.3v37Z"/>
            </g>
            <g class="cls-5">
              <path class="cls-84" d="M-59.8,218v37c0,.3.2.5.4.7l32,18.5c.2.1.6.1.8,0l32-18.5c.2-.1.4-.4.4-.7v-37c0-.3-.2-.5-.4-.7l-32-18.5c-.2-.1-.6-.1-.8,0l-32,18.5c-.2.1-.4.4-.4.7Z"/>
              <path class="cls-53" d="M5.4,217.3l-32-18.5c-.2-.1-.6-.1-.8,0l-32,18.5c-.2.1-.4.4-.4.7v37c0,.3.2.5.4.7l32,18.5c.2.1.6.1.8,0l32-18.5c.2-.1.4-.4.4-.7v-37c0-.3-.2-.5-.4-.7ZM5.4,255c0,.1,0,.3-.2.3l-32,18.5c0,0-.1,0-.2,0s-.1,0-.2,0l-32-18.5c-.1,0-.2-.2-.2-.3v-37c0-.1,0-.3.2-.3l32-18.5c0,0,.1,0,.2,0s.1,0,.2,0l32,18.5c.1,0,.2.2.2.3v37Z"/>
            </g>
            <g class="cls-36">
              <path class="cls-78" d="M-26.4,279.6v37c0,.3.2.5.4.7l32,18.5c.2.1.6.1.8,0l32-18.5c.2-.1.4-.4.4-.7v-37c0-.3-.2-.5-.4-.7l-32-18.5c-.2-.1-.6-.1-.8,0l-32,18.5c-.2.1-.4.4-.4.7Z"/>
              <path class="cls-54" d="M38.8,278.9l-32-18.5c-.2-.1-.6-.1-.8,0l-32,18.5c-.2.1-.4.4-.4.7v37c0,.3.2.5.4.7l32,18.5c.2.1.6.1.8,0l32-18.5c.2-.1.4-.4.4-.7v-37c0-.3-.2-.5-.4-.7ZM38.8,316.6c0,.1,0,.3-.2.3l-32,18.5c0,0-.1,0-.2,0s-.1,0-.2,0l-32-18.5c-.1,0-.2-.2-.2-.3v-37c0-.1,0-.3.2-.3l32-18.5c0,0,.1,0,.2,0s.1,0,.2,0l32,18.5c.1,0,.2.2.2.3v37Z"/>
            </g>
            <g class="cls-35">
              <path class="cls-79" d="M218.1-17.3V19.6c0,.3.2.5.4.7l32,18.5c.2.1.6.1.8,0l32-18.5c.2-.1.4-.4.4-.7V-17.3c0-.3-.2-.5-.4-.7l-32-18.5c-.2-.1-.6-.1-.8,0l-32,18.5c-.2.1-.4.4-.4.7Z"/>
              <path class="cls-52" d="M283.3-18l-32-18.5c-.2-.1-.6-.1-.8,0l-32,18.5c-.2.1-.4.4-.4.7V19.6c0,.3.2.5.4.7l32,18.5c.2.1.6.1.8,0l32-18.5c.2-.1.4-.4.4-.7V-17.3c0-.3-.2-.5-.4-.7ZM283.3,19.6c0,.1,0,.3-.2.3l-32,18.5c0,0-.1,0-.2,0s-.1,0-.2,0l-32-18.5c-.1,0-.2-.2-.2-.3V-17.3c0-.1,0-.3.2-.3l32-18.5c0,0,.1,0,.2,0s.1,0,.2,0l32,18.5c.1,0,.2.2.2.3V19.6Z"/>
            </g>
          </g>
        </g>
        <g class="cls-39">
          <g>
            <path class="cls-17" d="M591.1,341.3h0s-32.9-19-32.9-19v-38h0s32.9-19,32.9-19h0s32.9,19,32.9,19v38h0s-32.9,19-32.9,19ZM558.4,322.1l32.7,18.9,32.7-18.9v-37.7l-32.7-18.9-32.7,18.9v37.7Z"/>
            <path class="cls-17" d="M591.1,339.5h0s-31.4-18.1-31.4-18.1v-36.3h0s31.4-18.1,31.4-18.1h0s31.4,18.1,31.4,18.1v36.3h0s-31.4,18.1-31.4,18.1ZM560,321.2l31.2,18,31.2-18v-36l-31.2-18-31.2,18v36Z"/>
            <path class="cls-17" d="M591.1,337.8h0s-29.8-17.3-29.8-17.3v-34.5h0s29.8-17.3,29.8-17.3h0s29.8,17.3,29.8,17.3v34.5h0s-29.8,17.3-29.8,17.3ZM561.5,320.4l29.7,17.1,29.7-17.1v-34.2l-29.7-17.1-29.7,17.1v34.2Z"/>
            <path class="cls-17" d="M591.1,336h0s-28.3-16.4-28.3-16.4v-32.8h0s28.3-16.4,28.3-16.4h0s28.3,16.4,28.3,16.4v32.8h0s-28.3,16.4-28.3,16.4ZM563,319.5l28.1,16.2,28.1-16.2v-32.5l-28.1-16.2-28.1,16.2v32.5Z"/>
            <path class="cls-17" d="M591.1,334.3h0s-26.8-15.5-26.8-15.5v-31h0s26.8-15.5,26.8-15.5h0s26.8,15.5,26.8,15.5v31h0s-26.8,15.5-26.8,15.5ZM564.5,318.6l26.6,15.4,26.6-15.4v-30.7l-26.6-15.4-26.6,15.4v30.7Z"/>
            <path class="cls-17" d="M591.1,332.5h0s-25.3-14.6-25.3-14.6v-29.3h0s25.3-14.6,25.3-14.6h0s25.3,14.6,25.3,14.6v29.3h0s-25.3,14.6-25.3,14.6ZM566,317.7l25.1,14.5,25.1-14.5v-29l-25.1-14.5-25.1,14.5v29Z"/>
            <path class="cls-17" d="M591.1,330.8h0s-23.8-13.8-23.8-13.8v-27.5h0s23.8-13.8,23.8-13.8h0s23.8,13.8,23.8,13.8v27.5h0s-23.8,13.8-23.8,13.8ZM567.6,316.9l23.6,13.6,23.6-13.6v-27.2l-23.6-13.6-23.6,13.6v27.2Z"/>
            <path class="cls-17" d="M591.1,329h0s-22.3-12.9-22.3-12.9v-25.8h0s22.3-12.9,22.3-12.9h0s22.3,12.9,22.3,12.9v25.8h0s-22.3,12.9-22.3,12.9ZM569.1,316l22.1,12.7,22.1-12.7v-25.5l-22.1-12.7-22.1,12.7v25.5Z"/>
            <path class="cls-17" d="M591.1,327.3h0s-20.7-12-20.7-12v-24h0s20.7-12,20.7-12h0s20.7,12,20.7,12v24h0s-20.7,12-20.7,12ZM570.6,315.1l20.5,11.9,20.5-11.9v-23.7l-20.5-11.9-20.5,11.9v23.7Z"/>
            <polygon class="cls-17" points="558.4 322.3 558.3 322.1 623.9 284.2 624 284.4 558.4 322.3"/>
          </g>
          <g>
            <path class="cls-17" d="M656.7,568.8h0s-32.9-19-32.9-19v-38h0s32.9-19,32.9-19h0s32.9,19,32.9,19v38h0s-32.9,19-32.9,19ZM624,549.6l32.7,18.9,32.7-18.9v-37.7l-32.7-18.9-32.7,18.9v37.7Z"/>
            <path class="cls-17" d="M656.7,567.1h0s-31.4-18.1-31.4-18.1v-36.3h0s31.4-18.1,31.4-18.1h0s31.4,18.1,31.4,18.1v36.3h0s-31.4,18.1-31.4,18.1ZM625.5,548.8l31.2,18,31.2-18v-36l-31.2-18-31.2,18v36Z"/>
            <path class="cls-17" d="M656.7,565.3h0s-29.8-17.3-29.8-17.3v-34.5h0s29.8-17.3,29.8-17.3h0s29.8,17.3,29.8,17.3v34.5h0s-29.8,17.3-29.8,17.3ZM627,547.9l29.7,17.1,29.7-17.1v-34.2l-29.7-17.1-29.7,17.1v34.2Z"/>
            <path class="cls-17" d="M656.7,563.5h0s-28.3-16.4-28.3-16.4v-32.8h0s28.3-16.4,28.3-16.4h0s28.3,16.4,28.3,16.4v32.8h0s-28.3,16.4-28.3,16.4ZM628.6,547l28.1,16.2,28.1-16.2v-32.5l-28.1-16.2-28.1,16.2v32.5Z"/>
            <path class="cls-17" d="M656.7,561.8h0s-26.8-15.5-26.8-15.5v-31h0s26.8-15.5,26.8-15.5h0s26.8,15.5,26.8,15.5v31h0s-26.8,15.5-26.8,15.5ZM630.1,546.1l26.6,15.4,26.6-15.4v-30.7l-26.6-15.4-26.6,15.4v30.7Z"/>
            <path class="cls-17" d="M656.7,560h0s-25.3-14.6-25.3-14.6v-29.3h0s25.3-14.6,25.3-14.6h0s25.3,14.6,25.3,14.6v29.3h0s-25.3,14.6-25.3,14.6ZM631.6,545.3l25.1,14.5,25.1-14.5v-29l-25.1-14.5-25.1,14.5v29Z"/>
            <path class="cls-17" d="M656.7,558.3h0s-23.8-13.8-23.8-13.8v-27.5h0s23.8-13.8,23.8-13.8h0s23.8,13.8,23.8,13.8v27.5h0s-23.8,13.8-23.8,13.8ZM633.1,544.4l23.6,13.6,23.6-13.6v-27.2l-23.6-13.6-23.6,13.6v27.2Z"/>
            <path class="cls-17" d="M656.7,556.5h0s-22.3-12.9-22.3-12.9v-25.8h0s22.3-12.9,22.3-12.9h0s22.3,12.9,22.3,12.9v25.8h0s-22.3,12.9-22.3,12.9ZM634.6,543.5l22.1,12.7,22.1-12.7v-25.5l-22.1-12.7-22.1,12.7v25.5Z"/>
            <path class="cls-17" d="M656.7,554.8h0s-20.7-12-20.7-12v-24h0s20.7-12,20.7-12h0s20.7,12,20.7,12v24h0s-20.7,12-20.7,12ZM636.1,542.6l20.5,11.9,20.5-11.9v-23.7l-20.5-11.9-20.5,11.9v23.7Z"/>
            <polygon class="cls-17" points="623.9 549.8 623.8 549.6 689.4 511.7 689.6 511.9 623.9 549.8"/>
          </g>
          <g>
            <path class="cls-17" d="M623.9,398.2h0s-32.9-19-32.9-19v-38h0s32.9-19,32.9-19h0s32.9,19,32.9,19v38h0s-32.9,19-32.9,19ZM591.2,379l32.7,18.9,32.7-18.9v-37.7l-32.7-18.9-32.7,18.9v37.7Z"/>
            <path class="cls-17" d="M623.9,395.9h0s-30.9-17.9-30.9-17.9v-35.7h0s30.9-17.9,30.9-17.9h0s30.9,17.9,30.9,17.9v35.7h0s-30.9,17.9-30.9,17.9ZM593.2,377.9l30.7,17.7,30.7-17.7v-35.4l-30.7-17.7-30.7,17.7v35.4Z"/>
            <path class="cls-17" d="M623.9,393.6h0s-28.9-16.7-28.9-16.7v-33.4h0s28.9-16.7,28.9-16.7h0s28.9,16.7,28.9,16.7v33.4h0s-28.9,16.7-28.9,16.7ZM595.2,376.7l28.7,16.6,28.7-16.6v-33.1l-28.7-16.6-28.7,16.6v33.1Z"/>
            <path class="cls-17" d="M623.9,391.3h0s-26.9-15.6-26.9-15.6v-31.1h0s26.9-15.6,26.9-15.6h0s26.9,15.6,26.9,15.6v31.1h0s-26.9,15.6-26.9,15.6ZM597.2,375.6l26.7,15.4,26.7-15.4v-30.8l-26.7-15.4-26.7,15.4v30.8Z"/>
            <path class="cls-17" d="M623.9,389h0s-24.9-14.4-24.9-14.4v-28.8h0s24.9-14.4,24.9-14.4h0s24.9,14.4,24.9,14.4v28.8h0s-24.9,14.4-24.9,14.4ZM599.2,374.4l24.7,14.3,24.7-14.3v-28.5l-24.7-14.3-24.7,14.3v28.5Z"/>
            <path class="cls-17" d="M623.9,386.7h0s-22.9-13.2-22.9-13.2v-26.5h0s22.9-13.2,22.9-13.2h0s22.9,13.2,22.9,13.2v26.5h0s-22.9,13.2-22.9,13.2ZM601.2,373.3l22.7,13.1,22.7-13.1v-26.2l-22.7-13.1-22.7,13.1v26.2Z"/>
            <path class="cls-17" d="M623.9,384.3h0s-20.9-12.1-20.9-12.1v-24.2h0s20.9-12.1,20.9-12.1h0s20.9,12.1,20.9,12.1v24.2h0s-20.9,12.1-20.9,12.1ZM603.2,372.1l20.7,11.9,20.7-11.9v-23.9l-20.7-11.9-20.7,11.9v23.9Z"/>
            <path class="cls-17" d="M623.9,382h0s-18.9-10.9-18.9-10.9v-21.9h0s18.9-10.9,18.9-10.9h0s18.9,10.9,18.9,10.9v21.9h0s-18.9,10.9-18.9,10.9ZM605.2,371l18.7,10.8,18.7-10.8v-21.6l-18.7-10.8-18.7,10.8v21.6Z"/>
            <path class="cls-17" d="M623.9,379.7h0s-16.9-9.8-16.9-9.8v-19.6h0s16.9-9.8,16.9-9.8h0s16.9,9.8,16.9,9.8v19.6h0s-16.9,9.8-16.9,9.8ZM607.2,369.8l16.7,9.6,16.7-9.6v-19.3l-16.7-9.6-16.7,9.6v19.3Z"/>
            <path class="cls-17" d="M623.9,377.4h0s-14.9-8.6-14.9-8.6v-17.3h0s14.9-8.6,14.9-8.6h0s14.9,8.6,14.9,8.6v17.3h0s-14.9,8.6-14.9,8.6ZM609.2,368.6l14.7,8.5,14.7-8.5v-17l-14.7-8.5-14.7,8.5v17Z"/>
            <path class="cls-17" d="M623.9,375.1h0s-12.9-7.5-12.9-7.5v-14.9h0s12.9-7.5,12.9-7.5h0s12.9,7.5,12.9,7.5v14.9h0s-12.9,7.5-12.9,7.5ZM611.2,367.5l12.7,7.3,12.7-7.3v-14.7l-12.7-7.3-12.7,7.3v14.7Z"/>
            <path class="cls-17" d="M623.9,372.8h0s-10.9-6.3-10.9-6.3v-12.6h0s10.9-6.3,10.9-6.3h0s10.9,6.3,10.9,6.3v12.6h0s-10.9,6.3-10.9,6.3ZM613.2,366.3l10.7,6.2,10.7-6.2v-12.3l-10.7-6.2-10.7,6.2v12.3Z"/>
            <path class="cls-17" d="M623.9,370.5h0s-8.9-5.2-8.9-5.2v-10.3h0s8.9-5.2,8.9-5.2h0s8.9,5.2,8.9,5.2v10.3h0s-8.9,5.2-8.9,5.2ZM615.2,365.2l8.7,5,8.7-5v-10l-8.7-5-8.7,5v10Z"/>
            <path class="cls-17" d="M623.9,368.2h0s-6.9-4-6.9-4v-8h0s6.9-4,6.9-4h0s6.9,4,6.9,4v8h0s-6.9,4-6.9,4ZM617.2,364l6.7,3.9,6.7-3.9v-7.7l-6.7-3.9-6.7,3.9v7.7Z"/>
            <path class="cls-17" d="M623.9,365.9h0s-4.9-2.9-4.9-2.9v-5.7h0s4.9-2.9,4.9-2.9h0s4.9,2.9,4.9,2.9v5.7h0s-4.9,2.9-4.9,2.9ZM619.2,362.9l4.7,2.7,4.7-2.7v-5.4l-4.7-2.7-4.7,2.7v5.4Z"/>
            <path class="cls-17" d="M623.9,363.6h0s-2.9-1.7-2.9-1.7v-3.4h0s2.9-1.7,2.9-1.7h0s2.9,1.7,2.9,1.7v3.4h0s-2.9,1.7-2.9,1.7ZM621.2,361.7l2.7,1.6,2.7-1.6v-3.1l-2.7-1.6-2.7,1.6v3.1Z"/>
            <path class="cls-17" d="M623.9,361.3l-.9-.5v-1.1l.9-.5.9.5v1.1l-.9.5ZM623.2,360.6l.7.4.7-.4v-.8l-.7-.4-.7.4v.8Z"/>
          </g>
          <g>
            <path class="cls-17" d="M656.7,436.6h0s-16.9-9.8-16.9-9.8v-19.6h0s16.9-9.8,16.9-9.8h0s16.9,9.8,16.9,9.8v19.6h0s-16.9,9.8-16.9,9.8ZM640,426.6l16.7,9.6,16.7-9.6v-19.3l-16.7-9.6-16.7,9.6v19.3Z"/>
            <path class="cls-17" d="M656.7,434.3h0s-14.9-8.6-14.9-8.6v-17.3h0s14.9-8.6,14.9-8.6h0s14.9,8.6,14.9,8.6v17.3h0s-14.9,8.6-14.9,8.6ZM642,425.5l14.7,8.5,14.7-8.5v-17l-14.7-8.5-14.7,8.5v17Z"/>
            <path class="cls-17" d="M656.7,431.9h0s-12.9-7.5-12.9-7.5v-14.9h0s12.9-7.5,12.9-7.5h0s12.9,7.5,12.9,7.5v14.9h0s-12.9,7.5-12.9,7.5ZM644,424.3l12.7,7.3,12.7-7.3v-14.6l-12.7-7.3-12.7,7.3v14.6Z"/>
            <path class="cls-17" d="M656.7,429.6h0s-10.9-6.3-10.9-6.3v-12.6h0s10.9-6.3,10.9-6.3h0s10.9,6.3,10.9,6.3v12.6h0s-10.9,6.3-10.9,6.3ZM646,423.2l10.7,6.2,10.7-6.2v-12.3l-10.7-6.2-10.7,6.2v12.3Z"/>
            <path class="cls-17" d="M656.7,427.3h0s-8.9-5.2-8.9-5.2v-10.3h0s8.9-5.2,8.9-5.2h0s8.9,5.2,8.9,5.2v10.3h0s-8.9,5.2-8.9,5.2ZM648,422l8.7,5,8.7-5v-10l-8.7-5-8.7,5v10Z"/>
            <path class="cls-17" d="M656.7,425h0s-6.9-4-6.9-4v-8h0s6.9-4,6.9-4h0s6.9,4,6.9,4v8h0s-6.9,4-6.9,4ZM650,420.9l6.7,3.9,6.7-3.9v-7.7l-6.7-3.9-6.7,3.9v7.7Z"/>
            <path class="cls-17" d="M656.7,422.7h0s-4.9-2.9-4.9-2.9v-5.7h0s4.9-2.9,4.9-2.9h0s4.9,2.9,4.9,2.9v5.7h0s-4.9,2.9-4.9,2.9ZM652,419.7l4.7,2.7,4.7-2.7v-5.4l-4.7-2.7-4.7,2.7v5.4Z"/>
          </g>
          <g>
            <path class="cls-17" d="M292.1,503.3h0s-16.9-9.8-16.9-9.8v-19.6h0s16.9-9.8,16.9-9.8h0s16.9,9.8,16.9,9.8v19.6h0s-16.9,9.8-16.9,9.8ZM275.4,493.4l16.7,9.6,16.7-9.6v-19.3l-16.7-9.6-16.7,9.6v19.3Z"/>
            <path class="cls-17" d="M292.1,501h0s-14.9-8.6-14.9-8.6v-17.3h0s14.9-8.6,14.9-8.6h0s14.9,8.6,14.9,8.6v17.3h0s-14.9,8.6-14.9,8.6ZM277.4,492.2l14.7,8.5,14.7-8.5v-17l-14.7-8.5-14.7,8.5v17Z"/>
            <path class="cls-17" d="M292.1,498.7h0s-12.9-7.5-12.9-7.5v-14.9h0s12.9-7.5,12.9-7.5h0s12.9,7.5,12.9,7.5v14.9h0s-12.9,7.5-12.9,7.5ZM279.4,491.1l12.7,7.3,12.7-7.3v-14.6l-12.7-7.3-12.7,7.3v14.6Z"/>
            <path class="cls-17" d="M292.1,496.4h0s-10.9-6.3-10.9-6.3v-12.6h0s10.9-6.3,10.9-6.3h0s10.9,6.3,10.9,6.3v12.6h0s-10.9,6.3-10.9,6.3ZM281.4,489.9l10.7,6.2,10.7-6.2v-12.3l-10.7-6.2-10.7,6.2v12.3Z"/>
            <path class="cls-17" d="M292.1,494.1h0s-8.9-5.2-8.9-5.2v-10.3h0s8.9-5.2,8.9-5.2h0s8.9,5.2,8.9,5.2v10.3h0s-8.9,5.2-8.9,5.2ZM283.4,488.8l8.7,5,8.7-5v-10l-8.7-5-8.7,5v10Z"/>
            <path class="cls-17" d="M292.1,491.8h0s-6.9-4-6.9-4v-8h0s6.9-4,6.9-4h0s6.9,4,6.9,4v8h0s-6.9,4-6.9,4ZM285.4,487.6l6.7,3.9,6.7-3.9v-7.7l-6.7-3.9-6.7,3.9v7.7Z"/>
            <path class="cls-17" d="M292.1,489.5h0s-4.9-2.9-4.9-2.9v-5.7l4.9-2.9h0s4.9,2.9,4.9,2.9v5.7l-4.9,2.9ZM287.4,486.5l4.7,2.7,4.7-2.7v-5.4l-4.7-2.7-4.7,2.7v5.4Z"/>
          </g>
          <path class="cls-17" d="M591.1,455h0s-32.9-19-32.9-19v-38h0s32.9-19,32.9-19h0s32.9,19,32.9,19v38h0s-32.9,19-32.9,19ZM558.4,435.9l32.7,18.9,32.7-18.9v-37.7l-32.7-18.9-32.7,18.9v37.7Z"/>
          <path class="cls-17" d="M689.5,511.9h0s-32.9-19-32.9-19v-38h0s32.9-19,32.9-19h0s32.9,19,32.9,19v38h0s-32.9,19-32.9,19ZM656.8,492.7l32.7,18.9,32.7-18.9v-37.7l-32.7-18.9-32.7,18.9v37.7Z"/>
          <path class="cls-17" d="M419,453.1h0s-32.9-19-32.9-19v-38h0s32.9-19,32.9-19h0s32.9,19,32.9,19v38h0s-32.9,19-32.9,19ZM386.4,433.9l32.7,18.9,32.7-18.9v-37.7l-32.7-18.9-32.7,18.9v37.7Z"/>
          <path class="cls-17" d="M396.9,414.7h0s-10.7-6.2-10.7-6.2v-12.4h0s10.7-6.2,10.7-6.2h0s10.7,6.2,10.7,6.2v12.4h0s-10.7,6.2-10.7,6.2ZM386.4,408.3l10.5,6.1,10.5-6.1v-12.2l-10.5-6.1-10.5,6.1v12.2Z"/>
          <path class="cls-17" d="M487.6,513.9h0s-32.9-19-32.9-19v-38h0s32.9-19,32.9-19h0s32.9,19,32.9,19v38h0s-32.9,19-32.9,19ZM455,494.8l32.7,18.9,32.7-18.9v-37.7l-32.7-18.9-32.7,18.9v37.7Z"/>
          <path class="cls-17" d="M347.4,513.2h0s-32.9-19-32.9-19v-38h0s32.9-19,32.9-19h0s32.9,19,32.9,19v38h0s-32.9,19-32.9,19ZM314.7,494l32.7,18.9,32.7-18.9v-37.7l-32.7-18.9-32.7,18.9v37.7Z"/>
          <path class="cls-17" d="M556.8,372.6h0s-10.7-6.2-10.7-6.2v-12.4h0s10.7-6.2,10.7-6.2h0s10.7,6.2,10.7,6.2v12.4h0s-10.7,6.2-10.7,6.2ZM546.2,366.2l10.5,6.1,10.5-6.1v-12.2l-10.5-6.1-10.5,6.1v12.2Z"/>
          <path class="cls-17" d="M558.2,511.9h0s-32.9-19-32.9-19v-38h0s32.9-19,32.9-19h0s32.9,19,32.9,19v38h0s-32.9,19-32.9,19ZM525.6,492.7l32.7,18.9,32.7-18.9v-37.7l-32.7-18.9-32.7,18.9v37.7Z"/>
          <g>
            <path class="cls-17" d="M726.2,93.2l-29.1-16.8v-33.6l29.1,16.8v33.6ZM697.4,76.2l28.6,16.5v-33l-28.6-16.5v33Z"/>
            <path class="cls-17" d="M724.2,89.7l-25.1-14.5v-28.9l25.1,14.5v28.9ZM699.4,75.1l24.6,14.2v-28.4l-24.6-14.2v28.4Z"/>
            <path class="cls-17" d="M722.2,86.2l-21.1-12.2v-24.3l21.1,12.2v24.3ZM701.4,73.9l20.6,11.9v-23.7l-20.6-11.9v23.7Z"/>
            <path class="cls-17" d="M720.2,82.8l-17.1-9.9v-19.7l17.1,9.9v19.7ZM703.4,72.8l16.6,9.6v-19.1l-16.6-9.6v19.1Z"/>
            <path class="cls-17" d="M718.2,79.3l-13.1-7.5v-15.1l13.1,7.5v15.1ZM705.4,71.6l12.6,7.3v-14.5l-12.6-7.3v14.5Z"/>
            <path class="cls-17" d="M716.2,75.9l-9.1-5.2v-10.5l9.1,5.2v10.5ZM707.4,70.5l8.6,4.9v-9.9l-8.6-4.9v9.9Z"/>
            <path class="cls-17" d="M714.2,72.4l-5.1-2.9v-5.9l5.1,2.9v5.9ZM709.4,69.3l4.6,2.6v-5.3l-4.6-2.6v5.3Z"/>
          </g>
          <path class="cls-17" d="M695.3,266.8h0s-55.2-31.9-55.2-31.9v-63.8h0s55.2-31.9,55.2-31.9h0s55.2,31.9,55.2,31.9v63.8h0s-55.2,31.9-55.2,31.9ZM640.3,234.8l55,31.8,55-31.8v-63.5l-55-31.8-55,31.8v63.5Z"/>
          <g>
            <path class="cls-17" d="M347,495.4h0s-16.9-9.8-16.9-9.8v-19.6h0s16.9-9.8,16.9-9.8h0s16.9,9.8,16.9,9.8v19.6h0s-16.9,9.8-16.9,9.8ZM330.3,485.5l16.7,9.6,16.7-9.6v-19.3l-16.7-9.6-16.7,9.6v19.3Z"/>
            <path class="cls-17" d="M347,493.1h0s-14.9-8.6-14.9-8.6v-17.3h0s14.9-8.6,14.9-8.6h0s14.9,8.6,14.9,8.6v17.3h0s-14.9,8.6-14.9,8.6ZM332.3,484.4l14.7,8.5,14.7-8.5v-17l-14.7-8.5-14.7,8.5v17Z"/>
            <path class="cls-17" d="M347,490.8h0s-12.9-7.5-12.9-7.5v-14.9h0s12.9-7.5,12.9-7.5h0s12.9,7.5,12.9,7.5v14.9h0s-12.9,7.5-12.9,7.5ZM334.3,483.2l12.7,7.3,12.7-7.3v-14.7l-12.7-7.3-12.7,7.3v14.7Z"/>
            <path class="cls-17" d="M347,488.5h0s-10.9-6.3-10.9-6.3v-12.6h0s10.9-6.3,10.9-6.3h0s10.9,6.3,10.9,6.3v12.6h0s-10.9,6.3-10.9,6.3ZM336.3,482.1l10.7,6.2,10.7-6.2v-12.3l-10.7-6.2-10.7,6.2v12.3Z"/>
            <path class="cls-17" d="M347,486.2h0s-8.9-5.2-8.9-5.2v-10.3h0s8.9-5.2,8.9-5.2h0s8.9,5.2,8.9,5.2v10.3h0s-8.9,5.2-8.9,5.2ZM338.3,480.9l8.7,5,8.7-5v-10l-8.7-5-8.7,5v10Z"/>
            <path class="cls-17" d="M347,483.9h0s-6.9-4-6.9-4v-8h0s6.9-4,6.9-4h0s6.9,4,6.9,4v8h0s-6.9,4-6.9,4ZM340.3,479.7l6.7,3.9,6.7-3.9v-7.7l-6.7-3.9-6.7,3.9v7.7Z"/>
            <path class="cls-17" d="M347,481.6h0s-4.9-2.9-4.9-2.9v-5.7h0s4.9-2.9,4.9-2.9h0s4.9,2.9,4.9,2.9v5.7h0s-4.9,2.9-4.9,2.9ZM342.3,478.6l4.7,2.7,4.7-2.7v-5.4l-4.7-2.7-4.7,2.7v5.4Z"/>
          </g>
          <polygon class="cls-17" points="689.4 436.1 623.8 398.2 623.9 397.9 689.6 435.8 689.4 436.1"/>
          <g>
            <polygon class="cls-99" points="591.1 492.8 591.1 454.9 558.2 435.9 525.4 454.9 525.4 492.8 558.2 511.7 591.1 492.8"/>
            <g class="cls-34">
              <path class="cls-88" d="M488.7,283.9v37c0,.3.2.5.4.7l32,18.5c.2.1.6.1.8,0l32-18.5c.2-.1.4-.4.4-.7v-37c0-.3-.2-.5-.4-.7l-32-18.5c-.2-.1-.6-.1-.8,0l-32,18.5c-.2.1-.4.4-.4.7Z"/>
              <path class="cls-59" d="M553.9,283.2l-32-18.5c-.2-.1-.6-.1-.8,0l-32,18.5c-.2.1-.4.4-.4.7v37c0,.3.2.5.4.7l32,18.5c.2.1.6.1.8,0l32-18.5c.2-.1.4-.4.4-.7v-37c0-.3-.2-.5-.4-.7ZM553.9,320.8c0,.1,0,.3-.2.3l-32,18.5c0,0-.1,0-.2,0s-.1,0-.2,0l-32-18.5c-.1,0-.2-.2-.2-.3v-37c0-.1,0-.3.2-.3l32-18.5c0,0,.1,0,.2,0s.1,0,.2,0l32,18.5c.1,0,.2.2.2.3v37Z"/>
            </g>
            <g class="cls-28">
              <path class="cls-89" d="M727.5,21.1l-31.2,18c-.5.3-.5,1.1,0,1.4l31.2,18c.2.1.4.4.4.7v36c0,.6.7,1,1.2.7l31.2-18c.2-.1.4-.4.4-.7v-37c0-.3-.2-.5-.4-.7l-32-18.5c-.2-.1-.6-.1-.8,0Z"/>
              <path class="cls-60" d="M760.3,39.6l-32-18.5c-.2-.1-.6-.1-.8,0l-31.2,18c-.5.3-.5,1.1,0,1.4l31.2,18c.2.1.4.4.4.7v36c0,.6.7,1,1.2.7l31.2-18c.2-.1.4-.4.4-.7v-37c0-.3-.2-.6-.4-.7ZM760.3,77.2c0,.1,0,.3-.2.3l-31.2,18c0,0-.1,0-.2,0-.2,0-.4-.2-.4-.4v-36c0-.4-.2-.8-.6-1l-31.2-18c-.2-.1-.2-.3-.2-.3s0-.2.2-.3l31.2-18c0,0,.1,0,.2,0s.1,0,.2,0l32,18.5c.1,0,.2.2.2.3v37Z"/>
            </g>
            <g class="cls-31">
              <path class="cls-80" d="M731.3,100.1v37c0,.3.2.5.4.7l32,18.5c.2.1.6.1.8,0l32-18.5c.2-.1.4-.4.4-.7v-37c0-.3-.2-.6-.4-.7l-32-18.5c-.2-.1-.6-.1-.8,0l-32,18.5c-.2.1-.4.4-.4.7Z"/>
              <path class="cls-64" d="M796.6,99.4l-32-18.5c-.2-.1-.6-.1-.8,0l-32,18.5c-.2.1-.4.4-.4.7v37c0,.3.2.5.4.7l32,18.5c.2.1.6.1.8,0l32-18.5c.2-.1.4-.4.4-.7v-37c0-.3-.2-.5-.4-.7ZM796.6,137.1c0,.1,0,.3-.2.3l-32,18.5c0,0-.1,0-.2,0s-.1,0-.2,0l-32-18.5c-.1,0-.2-.2-.2-.3v-37c0-.1,0-.3.2-.3l32-18.5c0,0,.1,0,.2,0s.1,0,.2,0l32,18.5c.1,0,.2.2.2.3v37Z"/>
            </g>
            <g class="cls-38">
              <path class="cls-82" d="M279.8,517.4v37c0,.3.2.5.4.7l32,18.5c.2.1.6.1.8,0l32-18.5c.2-.1.4-.4.4-.7v-37c0-.3-.2-.5-.4-.7l-32-18.5c-.2-.1-.6-.1-.8,0l-32,18.5c-.2.1-.4.4-.4.7Z"/>
              <path class="cls-55" d="M345,517.6l-32-18.5c-.2-.1-.6-.1-.8,0l-32,18.5c-.2.1-.4.4-.4.7v37c0,.3.2.5.4.7l32,18.5c.2.1.6.1.8,0l32-18.5c.2-.1.4-.4.4-.7v-37c0-.3-.2-.5-.4-.7ZM345,555.2c0,.1,0,.3-.2.3l-32,18.5c0,0-.1,0-.2,0s-.1,0-.2,0l-32-18.5c-.1,0-.2-.2-.2-.3v-37c0-.1,0-.3.2-.3l32-18.5c0,0,.1,0,.2,0s.1,0,.2,0l32,18.5c.1,0,.2.2.2.3v37Z"/>
            </g>
            <g class="cls-29">
              <path class="cls-81" d="M140.5,517.4v37c0,.3.2.5.4.7l32,18.5c.2.1.6.1.8,0l32-18.5c.2-.1.4-.4.4-.7v-37c0-.3-.2-.5-.4-.7l-32-18.5c-.2-.1-.6-.1-.8,0l-32,18.5c-.2.1-.4.4-.4.7Z"/>
              <path class="cls-56" d="M205.8,517.6l-32-18.5c-.2-.1-.6-.1-.8,0l-32,18.5c-.2.1-.4.4-.4.7v37c0,.3.2.5.4.7l32,18.5c.2.1.6.1.8,0l32-18.5c.2-.1.4-.4.4-.7v-37c0-.3-.2-.5-.4-.7ZM205.8,555.2c0,.1,0,.3-.2.3l-32,18.5c0,0-.1,0-.2,0s-.1,0-.2,0l-32-18.5c-.1,0-.2-.2-.2-.3v-37c0-.1,0-.3.2-.3l32-18.5c0,0,.1,0,.2,0s.1,0,.2,0l32,18.5c.1,0,.2.2.2.3v37Z"/>
            </g>
            <g class="cls-33">
              <path class="cls-85" d="M696.9,161.2v37c0,.3.2.6.4.7l32,18.5c.2.1.6.1.8,0l32-18.5c.2-.1.4-.4.4-.7v-37c0-.3-.2-.5-.4-.7l-32-18.5c-.2-.1-.6-.1-.8,0l-32,18.5c-.2.1-.4.4-.4.7Z"/>
              <path class="cls-61" d="M762.1,160.5l-32-18.5c-.2-.1-.6-.1-.8,0l-32,18.5c-.2.1-.4.4-.4.7v37c0,.3.2.6.4.7l32,18.5c.2.1.6.1.8,0l32-18.5c.2-.1.4-.4.4-.7v-37c0-.3-.2-.5-.4-.7ZM762.1,198.2c0,.1,0,.3-.2.3l-32,18.5c0,0-.1,0-.2,0s-.1,0-.2,0l-32-18.5c-.1,0-.2-.2-.2-.3v-37c0-.1,0-.3.2-.3l32-18.5c0,0,.1,0,.2,0s.1,0,.2,0l32,18.5c.1,0,.2.2.2.3v37Z"/>
            </g>
            <g class="cls-32">
              <path class="cls-86" d="M662.5,221.9v37c0,.3.2.5.4.7l32,18.5c.2.1.6.1.8,0l32-18.5c.2-.1.4-.4.4-.7v-37c0-.3-.2-.5-.4-.7l-32-18.5c-.2-.1-.6-.1-.8,0l-32,18.5c-.2.1-.4.4-.4.7Z"/>
              <path class="cls-63" d="M727.7,221.2l-32-18.5c-.2-.1-.6-.1-.8,0l-32,18.5c-.2.1-.4.4-.4.7v37c0,.3.2.5.4.7l32,18.5c.2.1.6.1.8,0l32-18.5c.2-.1.4-.4.4-.7v-37c0-.3-.2-.5-.4-.7ZM727.7,258.9c0,.1,0,.3-.2.3l-32,18.5c0,0-.1,0-.2,0s-.1,0-.2,0l-32-18.5c-.1,0-.2-.2-.2-.3v-37c0-.1,0-.3.2-.3l32-18.5c0,0,.1,0,.2,0s.1,0,.2,0l32,18.5c.1,0,.2.2.2.3v37Z"/>
            </g>
            <g class="cls-30">
              <path class="cls-87" d="M349.4,517.4v37c0,.3.2.5.4.7l32,18.5c.2.1.6.1.8,0l32-18.5c.2-.1.4-.4.4-.7v-37c0-.3-.2-.5-.4-.7l-32-18.5c-.2-.1-.6-.1-.8,0l-32,18.5c-.2.1-.4.4-.4.7Z"/>
              <path class="cls-62" d="M414.6,516.7l-32-18.5c-.2-.1-.6-.1-.8,0l-32,18.5c-.2.1-.4.4-.4.7v37c0,.3.2.5.4.7l32,18.5c.2.1.6.1.8,0l32-18.5c.2-.1.4-.4.4-.7v-37c0-.3-.2-.5-.4-.7ZM414.6,554.3c0,.1,0,.3-.2.3l-32,18.5c0,0-.1,0-.2,0s-.1,0-.2,0l-32-18.5c-.1,0-.2-.2-.2-.3v-37c0-.1,0-.3.2-.3l32-18.5c0,0,.1,0,.2,0s.1,0,.2,0l32,18.5c.1,0,.2.2.2.3v37Z"/>
            </g>
            <g class="cls-19">
              <path class="cls-70" d="M419,517.4v37c0,.3.2.5.4.7l32,18.5c.2.1.6.1.8,0l32-18.5c.2-.1.4-.4.4-.7v-37c0-.3-.2-.5-.4-.7l-32-18.5c-.2-.1-.6-.1-.8,0l-32,18.5c-.2.1-.4.4-.4.7Z"/>
              <path class="cls-65" d="M484.3,516.7l-32-18.5c-.2-.1-.6-.1-.8,0l-32,18.5c-.2.1-.4.4-.4.7v37c0,.3.2.5.4.7l32,18.5c.2.1.6.1.8,0l32-18.5c.2-.1.4-.4.4-.7v-37c0-.3-.2-.5-.4-.7ZM484.3,554.3c0,.1,0,.3-.2.3l-32,18.5c0,0-.1,0-.2,0s-.1,0-.2,0l-32-18.5c-.1,0-.2-.2-.2-.3v-37c0-.1,0-.3.2-.3l32-18.5c0,0,.1,0,.2,0s.1,0,.2,0l32,18.5c.1,0,.2.2.2.3v37Z"/>
            </g>
            <g class="cls-20">
              <path class="cls-71" d="M732.1,221.9v37c0,.3.2.5.4.7l32,18.5c.2.1.6.1.8,0l32-18.5c.2-.1.4-.4.4-.7v-37c0-.3-.2-.5-.4-.7l-32-18.5c-.2-.1-.6-.1-.8,0l-32,18.5c-.2.1-.4.4-.4.7Z"/>
              <path class="cls-66" d="M797.4,221.2l-32-18.5c-.2-.1-.6-.1-.8,0l-32,18.5c-.2.1-.4.4-.4.7v37c0,.3.2.5.4.7l32,18.5c.2.1.6.1.8,0l32-18.5c.2-.1.4-.4.4-.7v-37c0-.3-.2-.5-.4-.7ZM797.4,258.9c0,.1,0,.3-.2.3l-32,18.5c0,0-.1,0-.2,0s-.1,0-.2,0l-32-18.5c-.1,0-.2-.2-.2-.3v-37c0-.1,0-.3.2-.3l32-18.5c0,0,.1,0,.2,0s.1,0,.2,0l32,18.5c.1,0,.2.2.2.3v37Z"/>
            </g>
            <g class="cls-18">
              <path class="cls-73" d="M697.3,281.9v37c0,.3.2.5.4.7l32,18.5c.2.1.6.1.8,0l32-18.5c.2-.1.4-.4.4-.7v-37c0-.3-.2-.5-.4-.7l-32-18.5c-.2-.1-.6-.1-.8,0l-32,18.5c-.2.1-.4.4-.4.7Z"/>
              <path class="cls-67" d="M762.5,281.2l-32-18.5c-.2-.1-.6-.1-.8,0l-32,18.5c-.2.1-.4.4-.4.7v37c0,.3.2.5.4.7l32,18.5c.2.1.6.1.8,0l32-18.5c.2-.1.4-.4.4-.7v-37c0-.3-.2-.5-.4-.7ZM762.5,318.8c0,.1,0,.3-.2.3l-32,18.5c0,0-.1,0-.2,0s-.1,0-.2,0l-32-18.5c-.1,0-.2-.2-.2-.3v-37c0-.1,0-.3.2-.3l32-18.5c0,0,.1,0,.2,0s.1,0,.2,0l32,18.5c.1,0,.2.2.2.3v37Z"/>
            </g>
            <g class="cls-25">
              <path class="cls-74" d="M662.5,341.9v37c0,.3.2.5.4.7l32,18.5c.2.1.6.1.8,0l32-18.5c.2-.1.4-.4.4-.7v-37c0-.3-.2-.5-.4-.7l-32-18.5c-.2-.1-.6-.1-.8,0l-32,18.5c-.2.1-.4.4-.4.7Z"/>
              <path class="cls-68" d="M727.7,341.2l-32-18.5c-.2-.1-.6-.1-.8,0l-32,18.5c-.2.1-.4.4-.4.7v37c0,.3.2.5.4.7l32,18.5c.2.1.6.1.8,0l32-18.5c.2-.1.4-.4.4-.7v-37c0-.3-.2-.5-.4-.7ZM727.7,378.8c0,.1,0,.3-.2.3l-32,18.5c0,0-.1,0-.2,0s-.1,0-.2,0l-32-18.5c-.1,0-.2-.2-.2-.3v-37c0-.1,0-.3.2-.3l32-18.5c0,0,.1,0,.2,0s.1,0,.2,0l32,18.5c.1,0,.2.2.2.3v37Z"/>
            </g>
            <g class="cls-24">
              <path class="cls-72" d="M419,396.6v37c0,.3.2.6.4.7l32,18.5c.2.1.6.1.8,0l32-18.5c.2-.1.4-.4.4-.7v-37c0-.3-.2-.5-.4-.7l-32-18.5c-.2-.1-.6-.1-.8,0l-32,18.5c-.2.1-.4.4-.4.7Z"/>
              <path class="cls-69" d="M484.3,395.9l-32-18.5c-.2-.1-.6-.1-.8,0l-32,18.5c-.2.1-.4.4-.4.7v37c0,.3.2.6.4.7l32,18.5c.2.1.6.1.8,0l32-18.5c.2-.1.4-.4.4-.7v-37c0-.3-.2-.5-.4-.7ZM484.3,433.5c0,.1,0,.3-.2.3l-32,18.5c0,0-.1,0-.2,0s-.1,0-.2,0l-32-18.5c-.1,0-.2-.2-.2-.3v-37c0-.1,0-.3.2-.3l32-18.5c0,0,.1,0,.2,0s.1,0,.2,0l32,18.5c.1,0,.2.2.2.3v37Z"/>
            </g>
            <g class="cls-23">
              <path class="cls-94" d="M488.7,396.6v37c0,.3.2.6.4.7l32,18.5c.2.1.6.1.8,0l32-18.5c.2-.1.4-.4.4-.7v-37c0-.3-.2-.5-.4-.7l-32-18.5c-.2-.1-.6-.1-.8,0l-32,18.5c-.2.1-.4.4-.4.7Z"/>
              <path class="cls-47" d="M553.9,395.9l-32-18.5c-.2-.1-.6-.1-.8,0l-32,18.5c-.2.1-.4.4-.4.7v37c0,.3.2.6.4.7l32,18.5c.2.1.6.1.8,0l32-18.5c.2-.1.4-.4.4-.7v-37c0-.3-.2-.5-.4-.7ZM553.9,433.5c0,.1,0,.3-.2.3l-32,18.5c0,0-.1,0-.2,0s-.1,0-.2,0l-32-18.5c-.1,0-.2-.2-.2-.3v-37c0-.1,0-.3.2-.3l32-18.5c0,0,.1,0,.2,0s.1,0,.2,0l32,18.5c.1,0,.2.2.2.3v37Z"/>
            </g>
            <g class="cls-22">
              <g>
                <polygon class="cls-95" points="625.9 280.3 625.9 242.4 593.1 223.5 625.9 280.3"/>
                <polygon class="cls-91" points="625.9 280.3 593.1 261.3 593.1 223.5 625.9 280.3"/>
              </g>
              <path class="cls-46" d="M593.1,223.5v37.9l32.8,18.9v-37.9l-32.8-18.9ZM625.5,279.6l-32-18.5v-37l32,18.5v37Z"/>
            </g>
            <g class="cls-21">
              <g>
                <polygon class="cls-92" points="347.4 513 347.4 475.1 314.6 456.2 347.4 513"/>
                <polygon class="cls-93" points="347.4 513 314.6 494.1 314.6 456.2 347.4 513"/>
              </g>
              <path class="cls-49" d="M314.6,456.2v37.9l32.8,18.9v-37.9l-32.8-18.9ZM347,512.3l-32-18.5v-37l32,18.5v37Z"/>
            </g>
            <g class="cls-27">
              <path class="cls-90" d="M384.2,456.5v37c0,.3.2.6.4.7l32,18.5c.2.1.6.1.8,0l32-18.5c.2-.1.4-.4.4-.7v-37c0-.3-.2-.5-.4-.7l-32-18.5c-.2-.1-.6-.1-.8,0l-32,18.5c-.2.1-.4.4-.4.7Z"/>
              <path class="cls-48" d="M449.5,455.8l-32-18.5c-.2-.1-.6-.1-.8,0l-32,18.5c-.2.1-.4.4-.4.7v37c0,.3.2.6.4.7l32,18.5c.2.1.6.1.8,0l32-18.5c.2-.1.4-.4.4-.7v-37c0-.3-.2-.5-.4-.7ZM449.5,493.5c0,.1,0,.3-.2.3l-32,18.5c0,0-.1,0-.2,0s-.1,0-.2,0l-32-18.5c-.1,0-.2-.2-.2-.3v-37c0-.1,0-.3.2-.3l32-18.5c0,0,.1,0,.2,0s.1,0,.2,0l32,18.5c.1,0,.2.2.2.3v37Z"/>
            </g>
            <g class="cls-26">
              <path class="cls-96" d="M732.1,341.9v37c0,.3.2.5.4.7l32,18.5c.2.1.6.1.8,0l32-18.5c.2-.1.4-.4.4-.7v-37c0-.3-.2-.5-.4-.7l-32-18.5c-.2-.1-.6-.1-.8,0l-32,18.5c-.2.1-.4.4-.4.7Z"/>
              <path class="cls-51" d="M797.4,341.2l-32-18.5c-.2-.1-.6-.1-.8,0l-32,18.5c-.2.1-.4.4-.4.7v37c0,.3.2.5.4.7l32,18.5c.2.1.6.1.8,0l32-18.5c.2-.1.4-.4.4-.7v-37c0-.3-.2-.5-.4-.7ZM797.4,378.8c0,.1,0,.3-.2.3l-32,18.5c0,0-.1,0-.2,0s-.1,0-.2,0l-32-18.5c-.1,0-.2-.2-.2-.3v-37c0-.1,0-.3.2-.3l32-18.5c0,0,.1,0,.2,0s.1,0,.2,0l32,18.5c.1,0,.2.2.2.3v37Z"/>
            </g>
            <g class="cls-37">
              <path class="cls-97" d="M697.3,455.4v37c0,.3.2.5.4.7l32,18.5c.2.1.6.1.8,0l32-18.5c.2-.1.4-.4.4-.7v-37c0-.3-.2-.5-.4-.7l-32-18.5c-.2-.1-.6-.1-.8,0l-32,18.5c-.2.1-.4.4-.4.7Z"/>
              <path class="cls-50" d="M762.5,454.7l-32-18.5c-.2-.1-.6-.1-.8,0l-32,18.5c-.2.1-.4.4-.4.7v37c0,.3.2.5.4.7l32,18.5c.2.1.6.1.8,0l32-18.5c.2-.1.4-.4.4-.7v-37c0-.3-.2-.5-.4-.7ZM762.5,492.3c0,.1,0,.3-.2.3l-32,18.5c0,0-.1,0-.2,0s-.1,0-.2,0l-32-18.5c-.1,0-.2-.2-.2-.3v-37c0-.1,0-.3.2-.3l32-18.5c0,0,.1,0,.2,0s.1,0,.2,0l32,18.5c.1,0,.2.2.2.3v37Z"/>
            </g>
          </g>
        </g>
      </g>
    </g>
  </g>
</svg>