<?xml version="1.0" encoding="UTF-8"?>
<svg xmlns="http://www.w3.org/2000/svg" version="1.1" viewBox="0 0 960 540">
  <defs>
    <style>
      .cls-1 {
        fill: #012;
      }

      .cls-2 {
        fill: #fff;
      }

      .cls-3 {
        fill: #c46f00;
      }
    </style>
  </defs>
  <!-- Generator: Adobe Illustrator 28.7.1, SVG Export Plug-In . SVG Version: 1.2.0 Build 142)  -->
  <g>
    <g id="Layer_1">
      <g id="visual">
        <rect class="cls-1" y="36" width="960" height="509"/>
        <path class="cls-3" d="M.3-1h22.8c22.9,0,68.5,0,114.2.1,45.7,0,91.3,0,137,.1,45.7,0,91.3,0,137.2.1,45.8,0,91.8,0,137.6.1,45.9,0,91.5,0,137.2.1,45.7,0,91.3,0,137,.1,45.7,0,91.3,0,114.2,0h22.8l-.6,59.9-22.8.6c-22.9.6-68.5,1.8-114.2,2.9-45.7,1.2-91.3,2.2-137,1.4-45.7-.9-91.3-3.7-137.1-5.7-45.8-2-91.8-3.3-137.6-5.2-45.9-1.9-91.5-4.4-137.2-4.9-45.7-.5-91.3,1-137,3.6s-91.4,6.2-114.3,8L-.3,62.3.3-1Z"/>
        <path class="cls-2" d="M0,506.7l22.8-4.8c22.9-4.8,68.5-14.3,114.2-12.9,45.7,1.4,91.3,13.8,137,18.8,45.7,4.9,91.3,2.4,137.2-3.8,45.8-6.2,91.8-16.1,137.6-17,45.9-1,91.5,7,137.2,11.3,45.7,4.3,91.3,4.9,137,4.8,45.7-.2,91.3-1.1,114.2-1.6l22.8-.5v39H0v-33.3Z"/>
      </g>
    </g>
  </g>
</svg>