<?xml version="1.0" encoding="UTF-8"?>
<svg xmlns="http://www.w3.org/2000/svg" version="1.1" viewBox="0 0 960 540">
  <defs>
    <style>
      .cls-1 {
        fill: #012;
      }

      .cls-2 {
        fill: #fff;
      }

      .cls-3 {
        fill: #c46f00;
      }
    </style>
  </defs>
  <!-- Generator: Adobe Illustrator 28.7.1, SVG Export Plug-In . SVG Version: 1.2.0 Build 142)  -->
  <g>
    <g id="visual">
      <rect class="cls-1" width="960" height="540"/>
      <path class="cls-3" d="M.3-149.1h22.8c22.9.1,68.5.3,114.2.4,45.7.1,91.3.3,137,.4,45.7.1,91.3.3,137.2.4,45.8.1,91.8.3,137.6.4,45.9.1,91.5.3,137.2.4,45.7.1,91.3.3,137,.4s91.3.3,114.2.3h22.8c0,0-.6,195.1-.6,195.1l-22.8,1.9c-22.9,1.9-68.5,5.8-114.2,9.5-45.7,3.8-91.3,7.2-137,4.5-45.7-2.8-91.3-12-137.1-18.6-45.8-6.6-91.8-10.8-137.6-16.9-45.9-6.1-91.5-14.3-137.2-15.9-45.7-1.6-91.3,3.2-137,11.6-45.7,8.4-91.4,20.2-114.3,26.2L-.3,56.9.3-149.1Z"/>
      <path class="cls-2" d="M0,531l22.8-5c22.9-5,68.5-15,114.2-13.5s91.3,14.5,137,19.7c45.7,5.1,91.3,2.5,137.2-4,45.8-6.5,91.8-16.9,137.6-17.9,45.9-1,91.5,7.4,137.2,11.9s91.3,5.1,137,5c45.7-.2,91.3-1.2,114.2-1.7l22.8-.5v41H0v-35Z"/>
    </g>
  </g>
</svg>