<?xml version="1.0" encoding="UTF-8"?>
<svg xmlns="http://www.w3.org/2000/svg" version="1.1" viewBox="0 0 960 540">
  <defs>
    <style>
      .cls-1 {
        fill: #2b2b2b;
      }

      .cls-2 {
        fill: #012;
      }

      .cls-3 {
        fill: #01223d;
      }

      .cls-4 {
        fill: #161514;
      }

      .cls-5 {
        fill: #7f4704;
      }

      .cls-6 {
        fill: #c46f00;
      }
    </style>
  </defs>
  <!-- Generator: Adobe Illustrator 28.7.1, SVG Export Plug-In . SVG Version: 1.2.0 Build 142)  -->
  <g>
    <g id="visual">
      <rect class="cls-2" width="960" height="540"/>
      <path class="cls-6" d="M0,335l22.8,6c22.9,6,68.5,18,114.2,26.5s91.3,13.5,137,12c45.7-1.5,91.3-9.5,137.2-15.5,45.8-6,91.8-10,137.6-16.5,45.9-6.5,91.5-15.5,137.2-18.2,45.7-2.6,91.3,1,137,4.9,45.7,3.8,91.3,7.8,114.2,9.8l22.8,2v195H0v-206Z"/>
      <path class="cls-5" d="M0,427l22.8-8c22.9-8,68.5-24,114.2-29s91.3,1,137,7.5c45.7,6.5,91.3,13.5,137.2,11.3,45.8-2.1,91.8-13.5,137.6-23.3,45.9-9.8,91.5-18.2,137.2-19.3,45.7-1.2,91.3,4.8,137,8.8s91.3,6,114.2,7l22.8,1v158H0v-114Z"/>
      <path class="cls-1" d="M0,434l22.8,3.7c22.9,3.6,68.5,11,114.2,11.5s91.3-5.9,137-16.4c45.7-10.5,91.3-25.1,137.2-31.3,45.8-6.2,91.8-3.8,137.6.7,45.9,4.5,91.5,11.1,137.2,13,45.7,1.8,91.3-1.2,137,1,45.7,2.1,91.3,9.5,114.2,13.1l22.8,3.7v108H0v-107Z"/>
      <path class="cls-4" d="M0,452l22.8-2.5c22.9-2.5,68.5-7.5,114.2-10.7,45.7-3.1,91.3-4.5,137,1.4,45.7,5.8,91.3,18.8,137.2,25.8,45.8,7,91.8,8,137.6,10.3,45.9,2.4,91.5,6,137.2,5.7s91.3-4.7,137-5.8c45.7-1.2,91.3.8,114.2,1.8l22.8,1v62H0v-89Z"/>
      <path class="cls-3" d="M0,506l22.8-5c22.9-5,68.5-15,114.2-13.5s91.3,14.5,137,19.7c45.7,5.1,91.3,2.5,137.2-4,45.8-6.5,91.8-16.9,137.6-17.9,45.9-1,91.5,7.4,137.2,11.9s91.3,5.1,137,5c45.7-.2,91.3-1.2,114.2-1.7l22.8-.5v41H0v-35Z"/>
    </g>
  </g>
</svg>